<svg xmlns="http://www.w3.org/2000/svg" xmlns:xlink="http://www.w3.org/1999/xlink" viewBox="0 0 366.72 423.46"><defs><style>.cls-1,.cls-3{fill:none;}.cls-2{fill:#69ad5c;}.cls-3{stroke:#fff;stroke-miterlimit:10;stroke-width:5px;}.cls-4{font-size:46.62px;font-family:HelveticaWorld-Regular, Helvetica World;}.cls-4,.cls-8{fill:#fff;}.cls-5{letter-spacing:-0.02em;}.cls-6{clip-path:url(#clip-path);}.cls-12,.cls-7{fill:#f2f7ec;}.cls-10,.cls-11,.cls-7,.cls-8,.cls-9{fill-rule:evenodd;}.cls-9{fill:#c1deba;}.cls-10,.cls-13{fill:#dcebce;}.cls-11{fill:#f2f2f2;}</style><clipPath id="clip-path"><polygon class="cls-1" points="354.79 310.7 354.79 112.76 183.36 13.78 11.94 112.76 11.94 310.7 183.36 409.67 354.79 310.7"/></clipPath></defs><title>old_svg_diveRpine</title><g id="Capa_2" data-name="Capa 2"><g id="Hexagon"><polygon class="cls-2" points="366.72 317.59 366.72 105.86 183.36 0 0 105.86 0 317.59 183.36 423.46 366.72 317.59"/><polygon class="cls-3" points="354.79 310.7 354.79 112.76 183.36 13.78 11.94 112.76 11.94 310.7 183.36 409.67 354.79 310.7"/></g><g id="Capa_4" data-name="Capa 4"><text class="cls-4" transform="translate(80.21 112.11)">di<tspan class="cls-5" x="36.83" y="0">v</tspan><tspan x="59.03" y="0">eRpine</tspan></text><g class="cls-6"><path id="_Trazado_" data-name="&lt;Trazado&gt;" class="cls-7" d="M172.91,170.78c-1.93,6.55-2.13,9.12-6.69,14.41a84.24,84.24,0,0,1-7,7.32l3.39-1s-2.4,2.46-5.79,5.72-10.11,7.24-9.3,7.09,3.71-1.06,5.62-1.62l-1.71,1.75c-3.29,2.16-7.83,5.22-7.66,5.29a12.3,12.3,0,0,0,2.42-.29c-1.72,1.58-3.59,3.24-5.63,5,.64-.1,5.45-1.33,10.67-2.69-.67.68-.64.67-1.74,1.74s-3.08,2.3-2.43,2.24A53.81,53.81,0,0,0,155,212.7a30.11,30.11,0,0,0,4.57-3l.46-.12c-1.14,1.49-4,5.17-3.65,5.08,1.27-.31,7.24-3.9,7.11-3.69-4.81,8.09-14.42,13.51-14,13.51,1.1,0,6.76-1.54,6.27-.92s-6.52,5.23-9.54,7.44-4.23,3-3.69,2.83,2.38-.36,4.9-.88a84.28,84.28,0,0,1-9.94,7.22s3.35-.78,7.52-1.86c-2.6,2.22-4.63,3.7-4.1,3.7s10.28-4.06,10-3.63S148,241.4,148,241.4a78.61,78.61,0,0,0,7.72-3.41,6.21,6.21,0,0,1,1.54-.92s-2.72,4-1.72,3.44,3.49-1.27,4.15-1.62c-2.54,8-13,12.55-13,12.55l4.62.07s-2.8,2-6.61,4.6-8.76,5-8.19,5.05a37.05,37.05,0,0,0,4.54-.05A182.18,182.18,0,0,1,125,270.2l8-1.76c-4.18,2.79-7.91,5-7.06,4.89s11.69-4.12,11.14-3.69-4.24,3.34-3.51,3.45,7.63-3.14,9.84-4.37,2.4-1.3,2.4-1.3-3.87,5.24-3.13,4.81,7.3-2.74,12.08-7.56c-3.07,6.55-5.76,9.56-12,13.16-5.54,3.2-8.62,4.07-7,4.07s4.31-.25,4.31-.25,3.61-.76-4.39,3.92-14.9,7.26-12.8,6.89c1.62-.29,4.42.39,6.46.59-9.27,6.11-16.9,9.2-15.51,9.38a39.51,39.51,0,0,0,6-1.17c-3.23,2.27-5.48,4-4.53,4,2.46-.12,12.43-5.17,11.81-4.43s-6.27,5.05-4.31,4.43,14-7,13.67-6.28-5.3,5.91-2.59,4.06c1.86-1.27,6.11-2.71,9.66-4.57-1.46,1.79-3.37,4-5.6,6.47-2.78,1.64-5.71,3.25-7.91,4.27-5,2.34-5.91,3.32-5.91,3.32l2.46.74s-.25.37-7.38,4.68-11.82,5.41-10.47,5.54,4.06,0,3.45.24-6.77,3.69-6.77,3.69a12,12,0,0,0,3,.21c-5.45,3.14-9.29,5.2-8.16,5.08.73-.07,2.63-.23,5.22-.51-3.67,1.73-6.27,3-5.48,3,1.84,0,10.46-2,10.46-2s-4.31,3.2-3.2,2.83,14.77-4.43,14.77-4.43-2.71,3.69-2.09,3.45,11.69-6.53,11.69-6.53-3.82,5.54-2.09,4.43c.94-.6,5.83-4,10.07-7-1.46,2-3.32,4.32-5.42,6.84a53.34,53.34,0,0,1-6.29,3.91c-3.7,1.78-5.79,2.46-5.11,2.46s3.32.12,3.32.12-1.17,1.91-5.29,4.62-6.65,3.81-6.22,3.93,3.08-.24,2.53.13-9,5.84-8.74,5.84a10.05,10.05,0,0,0,2.73,0c-3.51,2.53-5,3.56-3.23,3.28a34.07,34.07,0,0,0,3.82-1c-1.51,1.4-2.29,2.32-1.74,2.38,2.09.25,8.49-2.21,8.49-2.21s-1.6,2.46-.86,2.09,8.24-4.31,8.24-4.31-.49,3.08.25,2.46,9-7,9-7L136.8,351c-4.33,4.58-8.57,9.13-7.94,8.75a50.63,50.63,0,0,1,6.16-1.29c-1.36,1.37-2.18,2.32-1.5,2.27,1.72-.12,9.47-2.34,9.47-2.34s-1,2.46.5,1.85,11.94-5.3,11.94-5.3-.62,3.33.49,3,9.35-6.28,9.35-6.28,0,3.69.74,3.08c.17-.14.75-.79,1.54-1.71V371.7h10.73V353c.78.92,1.36,1.57,1.53,1.71.74.61.74-3.08.74-3.08s8.24,5.91,9.35,6.28.49-3,.49-3,10.47,4.68,12,5.3.49-1.85.49-1.85,7.75,2.22,9.48,2.34c.67.05-.15-.9-1.51-2.27a51.56,51.56,0,0,1,6.17,1.29c.62.38-3.61-4.17-7.95-8.75l1.69-1.59s8.24,6.4,9,7,.25-2.46.25-2.46,7.51,3.94,8.24,4.31-.86-2.09-.86-2.09,6.4,2.46,8.5,2.21c.54-.06-.24-1-1.75-2.38a34.66,34.66,0,0,0,3.82,1c1.78.28.28-.75-3.23-3.28a10,10,0,0,0,2.73,0c.31,0-8.18-5.47-8.74-5.84s2.1,0,2.53-.13-2.1-1.23-6.22-3.93-5.29-4.62-5.29-4.62,2.65-.12,3.32-.12-1.41-.68-5.1-2.46a51.75,51.75,0,0,1-6.29-3.91c-2.11-2.52-4-4.89-5.42-6.84,4.23,3,9.12,6.38,10.07,7,1.72,1.11-2.1-4.43-2.1-4.43s11.08,6.28,11.7,6.53-2.1-3.45-2.1-3.45,13.67,4.06,14.77,4.43-3.2-2.83-3.2-2.83,8.62,2,10.47,2c.78,0-1.82-1.24-5.49-3,2.59.28,4.49.44,5.22.51,1.13.12-2.7-1.94-8.16-5.08a12,12,0,0,0,3-.21s-6.15-3.44-6.77-3.69,2.09-.12,3.45-.24-3.33-1.23-10.46-5.54-7.39-4.68-7.39-4.68l2.46-.74s-.86-1-5.91-3.32c-2.2-1-5.13-2.63-7.9-4.27-2.24-2.44-4.14-4.68-5.61-6.47,3.55,1.86,7.8,3.3,9.66,4.57,2.71,1.85-2.22-3.32-2.59-4.06s11.7,5.66,13.67,6.28-3.7-3.69-4.31-4.43,9.35,4.31,11.81,4.43c.95.05-1.3-1.72-4.53-4a39.51,39.51,0,0,0,6,1.17c1.39-.18-6.24-3.27-15.51-9.38,2-.2,4.84-.88,6.47-.59,2.09.37-4.8-2.21-12.81-6.89s-4.39-3.92-4.39-3.92,2.71.25,4.31.25-1.48-.87-7-4.07c-6.24-3.6-8.93-6.61-12-13.16,4.78,4.82,11.35,7.12,12.09,7.56s-3.14-4.81-3.14-4.81.18.07,2.4,1.3,9.12,4.47,9.84,4.37-2.95-3-3.5-3.45,10.28,3.6,11.13,3.69-2.88-2.1-7-4.89l8,1.76a182.9,182.9,0,0,1-16-9.09,36.88,36.88,0,0,0,4.53.05c.58-.05-4.37-2.46-8.18-5.05s-6.62-4.6-6.62-4.6l4.62-.07s-10.42-4.6-13-12.55c.66.35,3.15,1.12,4.15,1.62s-1.72-3.44-1.72-3.44a6.21,6.21,0,0,1,1.54.92,78.61,78.61,0,0,0,7.72,3.41s-2.65-2.64-2.89-3.07,9.49,3.63,10,3.63-1.5-1.48-4.1-3.7c4.17,1.08,7.52,1.86,7.52,1.86a84.28,84.28,0,0,1-9.94-7.22c2.52.52,4.36.75,4.9.88s-.68-.61-3.69-2.83-9.05-6.83-9.54-7.44,5.17.92,6.28.92c.37,0-9.24-5.42-14.05-13.51-.13-.21,5.84,3.38,7.11,3.69.33.09-2.51-3.59-3.65-5.08l.46.12a30.28,30.28,0,0,0,4.58,3,54.22,54.22,0,0,0,7.84,3.08c.65.06-1.32-1.18-2.43-2.24s-1.07-1.06-1.74-1.74c5.22,1.36,10,2.59,10.67,2.69-2-1.78-3.91-3.44-5.62-5a12.16,12.16,0,0,0,2.41.29c.17-.07-4.36-3.13-7.66-5.29l-1.71-1.75c1.92.56,4.81,1.47,5.62,1.62s-5.92-3.82-9.3-7.09-5.79-5.72-5.79-5.72l3.39,1a84.24,84.24,0,0,1-7-7.32C175,179.9,174.84,177.33,172.91,170.78Z"/><path class="cls-8" d="M283.09,294.07c0-.67,0-1.34,0-2,0-.2.05-.4.08-.6.2-.18.25-.52.57-.59a.61.61,0,0,1,.42.29c.31.46.14.95.08,1.43a3.74,3.74,0,0,1-.15.74C283.82,293.69,283.72,294.22,283.09,294.07Z"/><path class="cls-8" d="M283.62,290.94c0,.32-.15.52-.49.52l-.09-.25c0-.17,0-.35,0-.52a.69.69,0,0,1,.13-.11.47.47,0,0,1,.47.06A.26.26,0,0,1,283.62,290.94Z"/><path class="cls-8" d="M283,289.43a3.31,3.31,0,0,0-.31-.66c-.43-.58-.53-1.4-1.15-1.85a.49.49,0,0,0,.31-.61l-.09-.08h0a.32.32,0,0,0,.35-.05,1.69,1.69,0,0,0,.42-1.07,3.46,3.46,0,0,0-.53-1.88.79.79,0,0,0-.27-.1c.09-.48-.19-.77-.68-.92l-.07,0a1,1,0,0,0-.2-.89,2.86,2.86,0,0,0-1.48-.9,6,6,0,0,0-1.38-.35,1.65,1.65,0,0,0-1.05.2l-.15-.06a.91.91,0,0,0-.74.09l0,0h0c.15-.43-.86-.25-.45-.82-.23-.51-.54-.69-1-.23a3.64,3.64,0,0,0-.35.84,2.93,2.93,0,0,1-.3.81.28.28,0,0,0-.09-.1.44.44,0,0,0-.2,0c-.1-.14-.2-.28-.29-.43s0,0,0-.05a1.77,1.77,0,0,0-.28-1,1.42,1.42,0,0,0-.72-.6c-.1-.35-.2-.7-.31-1a.61.61,0,0,0-.35-.66c-.75,0-1.05.49-1.18,1.14a.65.65,0,0,0,0,.2,1.64,1.64,0,0,1-.25-1,1.83,1.83,0,0,0-.48-1.56l-.14,0,0-.74.07,0a.55.55,0,0,0,.11-.33c-.1-.38-.38-.68-.5-1.06a.54.54,0,0,1,.05-.28c.22-.16.53-.17.74-.36a1.56,1.56,0,0,0,.38.39c.41.15.83.48,1.13-.15a3.48,3.48,0,0,0-1-2c-.24-.32-.44-.72-.9-.76a.55.55,0,0,0,.07-.25,1.94,1.94,0,0,0-2-1.23l.07-.12c-.37-.67-1.12-.64-1.7-.91a2,2,0,0,0-.63-.08,12,12,0,0,1-1.68.26c-.26.11-.6,0-.79.28a1,1,0,0,0-.19.29,1.27,1.27,0,0,0-.06-.18l-.27-.07c-.57-.15-.8.23-1,.65l-.58.37h0a.14.14,0,0,1,0,.06l-.15-.11a4.75,4.75,0,0,0-1.95.16l-.24.16-.07-.09a.84.84,0,0,0-.69-.12l-.79,0-.05,0a.86.86,0,0,0,0-.22,1.7,1.7,0,0,0-.94-.2,3.41,3.41,0,0,0-.78.11c-.43.15-.89.15-1.32.27a3.49,3.49,0,0,0-1.34.65,2,2,0,0,0,0,.24l0,0c-.35-.39-.53,0-.74.17l-.43.36-.16-.06a1.32,1.32,0,0,0-.84.39.85.85,0,0,0-.13.25.75.75,0,0,0-.72.57l-.39,0c-.55,0-.71.23-.58.73h0l0,0a2.85,2.85,0,0,1-1.41.47,1.1,1.1,0,0,0-.79.22.31.31,0,0,0-.1.3h0a1.06,1.06,0,0,0-.72-.16,1.69,1.69,0,0,0-.38.07c-.47.17-1,.06-1.46.36,0,0,0,.09-.05.13a.53.53,0,0,0-.26-.25,2.18,2.18,0,0,0-.84-.13,2.88,2.88,0,0,0-1.39.2.82.82,0,0,0-.06.19.12.12,0,0,1-.05-.05c-.22-.72-.72-.7-1.27-.57a.87.87,0,0,0-.31-.22c-.38-.11-.46-.42-.54-.74l-.52.24a1,1,0,0,0-.33.34.61.61,0,0,0,.05.33c.23.39.14.9.44,1.27a.73.73,0,0,0-.34.24l-.06.18,2.1,1.56.77.28c.22.34.69.14.92.39a3.84,3.84,0,0,0,.27.29l0,0a4.08,4.08,0,0,0,1.82.86,6.67,6.67,0,0,0,2.47-.28h.17a2.41,2.41,0,0,0,.33-.15.18.18,0,0,0,0-.07h.1c.31-.16.61-.34.92-.54l.51-.31.6-.31c.32-.15.64-.29,1-.42l.05,0h0a13,13,0,0,1,2.86-.81h.08l.11,0a9,9,0,0,1,2.59,0l.68.1.28,0,.68.13.18,0,.59.14a6.37,6.37,0,0,1,2.45,1.23,4.47,4.47,0,0,1,.45.42l.11.12h0l.22.24h0l.2.21c.34.37.68.74,1,1.12a13.06,13.06,0,0,1,.91,1.17c.07.1.14.19.2.29l.21.36c.21.34.39.7.57,1.06s.36.79.51,1.19a.8.8,0,0,0,.16-.16,1.82,1.82,0,0,0,.43-1.27l.52-.52c1.73.19,2.91,1.52,4.46,2.09a13.67,13.67,0,0,0,2.36,1.32,8.79,8.79,0,0,0,1.84,1,.56.56,0,0,0,.53.27c.4.24.79.52,1.21.73a24.87,24.87,0,0,1,6.36,4,.53.53,0,0,0,.21-.5C283.17,290.29,283.14,289.85,283,289.43Zm-33.95-14.75-.12.05A.43.43,0,0,1,249.07,274.68Zm13.27.26h0Zm.37-4.84.16-.16a.5.5,0,0,0,0,.12Zm1.48,5.64h0v0h0Zm2.86-3.16h0Zm4.15,8.13.05,0v0Zm9.72,1.61v0h0Z"/><path class="cls-9" d="M301.23,292.55a4.88,4.88,0,0,0-4.53.77l0,.25-.7.27-.28.38,0,0a1.22,1.22,0,0,0-1.25.71c.25,1.48-.11,3,0,4.44,0,1.31,0,2.63,0,3.95a10.22,10.22,0,0,1-1.17,4.43c-.16,0-.22.13-.17.29-.39.67-.81,1.33-1.16,2a2.29,2.29,0,0,1-2.55,1.44,3.65,3.65,0,0,0-3.75,2.28,1.49,1.49,0,0,0-.41,1.33c0,.57.28.75.77.75h.51a2.88,2.88,0,0,0,.59,0,20.43,20.43,0,0,0,4.4-.52,14.47,14.47,0,0,1,2.27.18,2,2,0,0,0,1.89-.41,16.61,16.61,0,0,0,1.4-3.31,6.09,6.09,0,0,0,1.25-2.47,6.93,6.93,0,0,0,1.58-3.93c.43-1.19.18-2.47.51-3.67a32,32,0,0,0,1.15-8.91A.59.59,0,0,0,301.23,292.55Zm-5.52,17.29,0,0,.05,0Z"/><path class="cls-9" d="M291.74,295.45c-.37,0-.46.43-.75.57a.27.27,0,0,0-.24.22l-.24.38-.13,0c-.52.09-1.06.15-1.22.77a5,5,0,0,0-1.75.4c-1,.26-2,.57-3-.09a4.6,4.6,0,0,1-1.18-1.27l-.07-.09c.48-.66.24-1.45.3-2.19-.12-.7.2-1.48-.42-2.07a16.07,16.07,0,0,0-4.78,1.47,6,6,0,0,0-2.28.55,1.64,1.64,0,0,0-1.05.28.72.72,0,0,0-.79.25,7.06,7.06,0,0,0-3.15,1.05l-1.62.42A5.6,5.6,0,0,0,266,298l-.22.26L262.81,301c-.59.54-1.39.88-1.6,1.76a3.28,3.28,0,0,0-2,1.06,3,3,0,0,0-1.58,1,11.24,11.24,0,0,0-2.65,2.06c-.57.76-.69,1.44.26,2.08a8.09,8.09,0,0,0,2.1.94,2.6,2.6,0,0,0,2.41-.05,2.7,2.7,0,0,0,1.56-.77,4.82,4.82,0,0,0,1.84-1.6c.38-.09.48-.43.64-.71.27-.06.37-.28.46-.51.29-.24.65-.42.77-.82.39-.41,1-.48,1.32-1,1.28-.81,2.53-1.65,3.88-2.35.45-.23,1.12-.37,1.13-1.11a.42.42,0,0,0,.22,0,10.77,10.77,0,0,0,3.15.29l2.36.21,1.32,0a7.23,7.23,0,0,0,2.62.27,7.87,7.87,0,0,0,2.69-.17c2.22-.44,3.9-2,6-2.73a6.7,6.7,0,0,0,4-4.17C292.63,294,292.32,295,291.74,295.45Z"/><path class="cls-9" d="M272.43,250h0a1,1,0,0,0,0-.1c-.08-.22-.17-.43-.26-.64a.61.61,0,0,1-.05-.12l0,0h0q-.17-.33-.36-.66h0l0,0,0,0h0l-.12-.19h0l0-.05h0a5.47,5.47,0,0,0-.41-.54h0l-.07-.08,0-.05c-.43-.33-.86-.07-1.3.08a11.09,11.09,0,0,0-3.83,2.72,2.59,2.59,0,0,1-.17-.33.36.36,0,0,1-.14-.11,8.31,8.31,0,0,1-.93-1.71c-.18-.42-.35-.85-.55-1.27l-.11-.09a5.49,5.49,0,0,0-1.26-1.79,1.66,1.66,0,0,0-2.26.27.56.56,0,0,1,0,.12,13.8,13.8,0,0,1-.82,1.63c-.33.58-.67,1.15-1,1.75v0a.2.2,0,0,0,0,.08l0,.06h0c-.07.14-.14.28-.2.43a.39.39,0,0,1-.13.15l0,.08a.45.45,0,0,1,0,.25c-.08.17-.15.34-.22.51a2,2,0,0,0,0,.7,3.16,3.16,0,0,1-.33.73c-.08.45-.15.91-.22,1.37.19-.19.37-.39.55-.58a.42.42,0,0,0,.31,0,.86.86,0,0,0,.33-.35.49.49,0,0,0,0-.12,2.54,2.54,0,0,0,1-.18l.9-.33.07,0a1.14,1.14,0,0,0,.26.09,5.33,5.33,0,0,1,1.25.19,2.39,2.39,0,0,0,1.21.24.45.45,0,0,0,.19-.11,5.6,5.6,0,0,0,.33.7,4.23,4.23,0,0,0-.1,1.43,1.4,1.4,0,0,0,.2.56l.21.09s0,0,0,0l-.15.13c-.22.38,0,.76,0,1.13l.1.13c-.26.42-.06.9-.11,1.34a.49.49,0,0,0,.12.15.15.15,0,0,0,0,.24c.13.24.25.48.55.52l0-1c.08-.52.17-1,.25-1.58.05-.25.09-.51.14-.77a.69.69,0,0,0,.16-.45h0c.65-.1.56-.79.89-1.14.06-.1.12-.19.17-.29s.22-.46.06-.67a1.77,1.77,0,0,0,.42-.4l0,0,.11,0c.32,0,.56-.11.64-.45.45-.47,1.11-.65,1.59-1.07l.27-.05.88-.26c.68-.31,1.31.15,2,.16a.16.16,0,0,0,.09.18.42.42,0,0,0,.43-.27Z"/><path class="cls-9" d="M344.82,304.59a.92.92,0,0,0-.31-.77c0-.69-.84-.61-1.06-1.1l-.54-.19a2.51,2.51,0,0,0-1.71-.66l0,0a.31.31,0,0,0-.1-.43c-.58-.44-1.33-.61-1.81-1.2l-.43-.11a.62.62,0,0,0-.64-.72l-.24-.06-.26-.28c-.12-.37-.57-.25-.76-.52l-1.08-1.87c-.24-.88-1-1.54-1.05-2.52a.3.3,0,0,0-.24-.24h0l-.28-.64c0-.09,0-.18.05-.27a.37.37,0,0,1-.1-.22v0l0-.09a1.32,1.32,0,0,0,0-.56c-.38-.68-.24-1.62-.94-2.14h0a2.9,2.9,0,0,0-.7-1.41h-.17c.26-.47-.22-.74-.32-1.12a3.61,3.61,0,0,0-.93-.94,12.86,12.86,0,0,0-2.94-1,1.73,1.73,0,0,0-1.37.35,3.2,3.2,0,0,0-.95,1.94.31.31,0,0,0-.11.09.83.83,0,0,0,.07,1c0,.28.05.56.07.84a2.52,2.52,0,0,1-.15.33.66.66,0,0,0,.23.75l.37.45a8.61,8.61,0,0,0,1.6,2.14c.1.16.21.31.32.46a3.36,3.36,0,0,0,1,1.13l.19.23.63.74,1.56,1.61a7.62,7.62,0,0,0,1.86,1.81,1.34,1.34,0,0,0,.73.55c.24.27.49.54.74.8l1.13,1.84.24.81.09.47c.17.63.05,1.34.22,2l0,0,.25,1.11h0a.73.73,0,0,0,.05.35,1.81,1.81,0,0,1-.29,1.3h0a1.75,1.75,0,0,1-.51.57l0,0-.18.16a5.92,5.92,0,0,1-.82.56l-.26.14c-.21.11-.43.21-.66.31s-.76.41-1.15.6h0l-.12.06a.34.34,0,0,1-.21,0l-2.05,1c-.81.65-1.86.31-2.72.69l-.7,0c-1.36,0-2.8-.32-4,.75a1.92,1.92,0,0,0-.79,2.17c1.32.87,2.79.6,4.23.52a11.48,11.48,0,0,0,2.87,0,9.64,9.64,0,0,0,3.17-.07,4,4,0,0,0,1.84-.22,6.58,6.58,0,0,0,2.79-2.07l.06-.07,0,0a3.55,3.55,0,0,1,.31-.23l.06,0a5.07,5.07,0,0,1,.45-.36l.46-.26.07-.09h0a3.3,3.3,0,0,1,.32-.18l.72-.57,0-.05h0l.48-.39.47-.37,0,0a.31.31,0,0,1,.12,0l.34-.23,0-.05h0l1.68-1.23c.42,0,.64-.39,1-.58l.52-.28c.39-.19.9-.23,1-.77l0-.52v-.79A3,3,0,0,0,344.82,304.59Zm-14.21-9.44a.08.08,0,0,1,0,0l0,0Zm-.62,18h0l.09,0Z"/><path class="cls-8" d="M238.27,273.58l-.08,0c.09-.17.17-.34.25-.52l-.09,0c-.35.2-.73.33-1.09.5h0l-.06,0-.06,0h0l-.19.1a1.72,1.72,0,0,0-.07.21,3.35,3.35,0,0,0,.94,1.47h.38l-.05-.08.53-.24C238.51,274.63,239,274,238.27,273.58Z"/><path class="cls-10" d="M364.74,291.21a.54.54,0,0,0-.51-.31l-2.18-1.25c0-.32-.16-.46-.47-.46l-.45-.37-.16-.23-.21-.26-1.28-2.1c-.43-1.15-.85-2.29-1.28-3.43a9.07,9.07,0,0,0-.76-2.64,5.45,5.45,0,0,0-.62-2.08l-.21-.53a4.88,4.88,0,0,0-.75-1.66h0c-.16-.43-.16-.93-.56-1.25a5.09,5.09,0,0,0-1.74-2.64c-.13-.23-.22-.45.16-.53l1.3.34a15.68,15.68,0,0,1,3.41,2l.53.27.25.07,1.31,1a15.38,15.38,0,0,0,3.38,2.38l.49.28m1.34-11.53-.26,0a1.88,1.88,0,0,0-.3.12h0l-.43,0-1.05,0-.79,0a18.26,18.26,0,0,1-3.47-.13c-.62-.05-1.25-.12-1.87-.21-1-.14-2.06-.32-3.08-.55l-.27-.06c-.45-.1-.9-.21-1.34-.33l-.44-.14-.16,0-.55-.22a2.64,2.64,0,0,1-.38-.18l-.57-.28-1.48-.55-1.59-.6-.53-.45-.3-.16-.76-.38-.28-.19a20.85,20.85,0,0,0-7.33-1.29,32.58,32.58,0,0,0-6.84.21,8,8,0,0,0-2.67.23h0a16.8,16.8,0,0,0-4,.78h0a.17.17,0,0,0-.17,0,8.67,8.67,0,0,0-3.15.54l-.53,0a2.39,2.39,0,0,0-1.31.22l-2.92.47-2.55.3-.06,0h-.06a25,25,0,0,1-3.57.11h-.57l-.31,0c-.79,0-1.58.09-2.37.09-.59,0-1.17,0-1.75-.06-.31,0-.61-.06-.91-.11h-.16l-1.57,0a11.67,11.67,0,0,0-2.89-.21h-.52l-.52,0h0a22.45,22.45,0,0,1-2.3-.25h0c-.57-.08-1.14-.18-1.7-.28l-.84-.16h0l-1.31-.26a17.58,17.58,0,0,1-2.95-.88h-.07l-.06,0-1.19-.45-.33,0-.32-.21a15.65,15.65,0,0,0-1.69-.49h0l-.07,0c-1.76-.4-3.57-.63-5.32-1.06l-.54-.14c-.37-.1-.75-.22-1.11-.35s-.89-.33-1.33-.52h0l-.78-.32h0l-.88-.36h0l-.27-.1h0c-.5-.19-1-.36-1.52-.52h0l-.15,0-.1,0h0c-.4-.12-.81-.23-1.22-.33h0l-.33-.08h-.06a.33.33,0,0,1-.27-.25l-.27-.19c0-.14,0-.28,0-.42l.19-.29a1.37,1.37,0,0,0,.3-1c.41-.78.13-1.62.2-2.42l0,0a.13.13,0,0,1,0-.06h0c0-.09,0-.18,0-.27l0,0a8.59,8.59,0,0,0-.31-1.31.73.73,0,0,1-.43.34.42.42,0,0,1,0-.15c-.61-.58-1.25-1-2.06-.37a.22.22,0,0,1-.12.13l.12-.13-.8.28c-.62.44-1.55.41-1.9,1.27a1,1,0,0,1,0,.1l-.7.35h0l-.23-.06c-.12.15-.24.31-.37.46s-.15.53-.23.79h0c-.54.24-.33,1-.79,1.25a.46.46,0,0,0-.17.56l-.17.06a1.43,1.43,0,0,0-.25.74c0,.52-.23,1-.24,1.53a3.08,3.08,0,0,0,0,.43s0-.09-.05-.14a3.77,3.77,0,0,1-.1-.83c0-.24,0-.48,0-.72,0-.44,0-.87-.08-1.31H264l-.09-.47c-.07-.28-.15-.55-.22-.83,0-.09,0-.18,0-.28a1.26,1.26,0,0,0-.3-1.29l-1.22-.31c-.42-.43-.91-.23-1.39-.16l-.52-.09-.81.33-1,.22a2.25,2.25,0,0,1-.08.24l-.31.22-.21.23a.09.09,0,0,0,0,.05.43.43,0,0,0-.52.26c-.07.48-.14.95-.25,1.42a1.62,1.62,0,0,0,0,.2c-.11.14-.21.29-.32.44l-1.28.65h0l-.22.11a.3.3,0,0,0,0,.08,7.39,7.39,0,0,0-2.61,1.6,6.78,6.78,0,0,0-2.69,2.54,2.86,2.86,0,0,0-.82,1.36h0l-.43.83-.24.41a.56.56,0,0,1,0,.12c-.06.15-.14.29-.21.44a2.25,2.25,0,0,0-.08.24v.05l-.51,1.85h0l-.23.44a.16.16,0,0,1,0,.07h0a6.75,6.75,0,0,1-.76,1,8.25,8.25,0,0,1-.67.65,9.59,9.59,0,0,1-.78.65l-.73.56h0c-.49.37-1,.75-1.44,1.16l-.56.5h0l-.32.3a23.49,23.49,0,0,1-1.81,1.52,9.73,9.73,0,0,1-1.34.84c-.24.47.06.68.44.87l.27.05.05.06a2.24,2.24,0,0,1,1.38.54l1.59,0h.77l.27.11c.5-.2,1.11.1,1.56-.34l.27-.05.76-.06a.4.4,0,0,1,0-.15c.32.06.54-.15.78-.29.49.3,1,.11,1.54-.55h0v0c0-.36.34-.5.56-.72l0,.06a.32.32,0,0,0,.44-.1c.27-.19.54-.38.82-.56a.41.41,0,0,1,.05-.19l.78-.27c.2-.17.59-.08.67-.45v-.05l.65-.15L254,270a2.37,2.37,0,0,0,1.26-.26l.79,0,1,.07a.74.74,0,0,0,.74.12l.11-.1a1.09,1.09,0,0,0,.75.14V270l2.24-.09c.15,0,.19-.06.14-.2l0-.05h0l.07.06c.37,0,.56-.19.69-.5a.43.43,0,0,0,0,0l.77-.5a.56.56,0,0,0,.22.13h.1v1.14c.37-.32.26-.74.24-1.14h0c.3-.07.59-.16.88-.25s.49-.12.72-.22h1l.5.06c.49.33,1.16.27,1.56.76a6.67,6.67,0,0,1,1.89,1.31c0,.09,0,.18,0,.28l.82.75c.31.63.62,1.26.94,1.89h0c-.34.45-.64-.1-1,0l-.27-.26c-.41.13-.92-.22-1.25.28a.46.46,0,0,0,0,.26h0a2.14,2.14,0,0,0,.73,1.3V275a1.16,1.16,0,0,0-.16.21.68.68,0,0,0,.13.73,3.2,3.2,0,0,1,.27,2c0,.57.11.95.79.86l0-.51h0a1.5,1.5,0,0,1,1.08-1.07l-.07-.06a.13.13,0,0,1,.07.06.72.72,0,0,0,.17.48l-.07.15a1.07,1.07,0,0,0,.39,1h.09a1,1,0,0,0,.46.49h0l.28.75c.21.24.06.71.53.78l.23.05,0,.21c.67-.07.49-.6.56-1,.23-.21.21-.5.25-.77.39-.37.51.08.74.23-.33.63.41.46.55.74l.78,0h1.32l1.3.3,1.23.8h0l.4.75a2.22,2.22,0,0,1,.71,1.05.78.78,0,0,0,.21,0c.11.34.21.68.31,1s.05.51.08.77l-.3,1.06h-.23c-.05.3-.18.52-.53.52.55.63.62,1.54,1.27,2.1l.23.57c.08.42,0,.88.27,1.26h.54a1,1,0,0,0,0,.25l.26.26c.35.44,0,.88,0,1.32v.79c-.33.18-.35.68-.78.76l0,2.39a2,2,0,0,0,1,1.3c.37.73,1.11.7,1.72.68a7.71,7.71,0,0,0,3.36-1l1.3-.74a.43.43,0,0,0,.32-.49h0L291,296v0c.38.07.64-.18.93-.37a3.61,3.61,0,0,1,1.75-1c.32-.1.49.17.73.28.53,0,.77-.54,1.25-.64.27,0,.37-.18.4-.41a.55.55,0,0,0,.65-.31c1.44-1,3.08-.89,4.7-.84h0c0,.08.05.11.13.1l1.19,0a1.45,1.45,0,0,0,.35.07,19.28,19.28,0,0,0,3.64.13h.53l1.57,0h1.32c1.3.09,2.6,0,3.9.22a3.49,3.49,0,0,0,2.42-.17l.77-.06a1.84,1.84,0,0,0,1.36-.2,6.67,6.67,0,0,0,2.31-.29,6.45,6.45,0,0,0,2.64-.56c.44-.15.94-.16,1.29-.53l.8-.48.36-.17c0-.21,0-.42,0-.63.05-.43.23-.86,0-1.29l-.1,0c0-.31.05-.63.08-.94l.22-.12A4.69,4.69,0,0,1,327,286c.41,0,.76-.38,1.21-.2l2.92.95.74.9c-.05.43.38.62.5,1l.62,1.25c.58.71.49,1.7,1,2.45,0,.16,0,.31,0,.47l.18,0h0a.24.24,0,0,0,.05.16.81.81,0,0,0-.14.33.89.89,0,0,0,.47.77h0l0,0c-.14,1.06.59,1.77,1,2.61.35.63.72,1.25,1.07,1.89a1.78,1.78,0,0,0,.84.64,1.91,1.91,0,0,0,.49.21h.2c.18.22.37.44.55.67a.47.47,0,0,0,.26.15,4,4,0,0,0,1.91,1.43l.17.07a1.41,1.41,0,0,0,0,.2l1.31.4a2.13,2.13,0,0,1,.39.35c.22.13.43.28.64,0a10.53,10.53,0,0,1-1-4.68c.25-.88.5-1.76.74-2.63l.74-.44.13-.07a2.47,2.47,0,0,0,1.55-1.07l.53.27a4,4,0,0,0,1.75,1.61,1,1,0,0,0,.61.49,4,4,0,0,0,2.09,1.34,12.44,12.44,0,0,0,4.74,1.28h.79a9.43,9.43,0,0,0,2.64-.29,9.1,9.1,0,0,0,2.08-.25A15.94,15.94,0,0,0,364,298m-96.62-45.13h0Zm17.3,9.73Zm-8.38,15.48h0Zm-12.6-16h0Zm10.73,8.21h0a.36.36,0,0,1,0,.09Zm-9.21-6.68.05.05,0,0Zm6.1,3.7v0h0Zm-.28,0a.15.15,0,0,1,0,.07l0-.05Zm7.09,2.45h0c0,.06.08.1.12.15h-.12C278.1,269.8,278.09,269.76,278.09,269.7Zm-4.45,3.39ZM270.22,261l0-.12s0,.08,0,.12Zm-13.39.79h0ZM284.3,288l0,0,.06,0C284.43,287.84,284.45,288,284.3,288ZM265.23,255.5h0l0-.05Zm11,22.58h0v0Zm-8.94-25.47h0v0Zm-16.35,15a.74.74,0,0,1-.12.16l-.35-.1-.05-.12a.43.43,0,0,0-.28-.22,2.09,2.09,0,0,0,0-.25l0-.11.13-.13a.54.54,0,0,0-.1-.67l.06,0a.82.82,0,0,0,.23-.85s0-.06-.06-.1a1,1,0,0,0,.25-.22,1.15,1.15,0,0,0,.17-.65.3.3,0,0,0,.15-.07h0a3.77,3.77,0,0,0,1.3.68c.49.15.88.54,1.4.63a1.43,1.43,0,0,0-.86,1.29l-.67.27-.1.13h-.23A1.58,1.58,0,0,0,251,267.57Zm33.7,10.51h0l0,0,0,0Zm.51-8.66h0l0,0Zm1.25,7.4,0-.05h.08Zm.21.95-.06-.34A.26.26,0,0,1,286.64,277.77Zm.12-12,0-.06h.08Zm1-3.42h0Zm.08,30.3-.06-.09h.08A.29.29,0,0,1,287.86,292.62Zm.93,2.54,0,0,0,0Zm.86-1.59h0Zm0,0h0Zm3-28.22a.47.47,0,0,1,0-.16.66.66,0,0,0,0,.15Zm.9-.94s0,0,0,0l0,0Zm27.07,19.39a.14.14,0,0,0,0-.06l.1.08ZM322.5,285a.08.08,0,0,1,0-.08h0A.22.22,0,0,0,322.5,285Zm5-1.89,0,0h.05S327.5,283.09,327.5,283.1ZM329,265Zm.61-.73s0,0,0,0h0l0,.08Zm2.78,22.36c-.06.12-.05,0,0-.06l0,0S332.43,286.57,332.42,286.59Zm.54.94h0Zm2.62-4.2h0Zm0,0h0Zm1.76,2.4v-.05h.07Zm4.76-21.6,0,0v0ZM344,289.38h0Zm7.37-20.22Zm.26,26.32a.13.13,0,0,0,0-.06l.07.06Zm0-27.9h0l.08-.07.15.07Zm11.29,29.67Zm-1.53-2.7,0,.08h-.16Zm-3.08-2.81-.09.05,0-.05Zm-1.46,2.59,0,0h0Zm-.49-8.4,0,0h0Zm1.6-15.18,0,0h0Zm1.79,2.1,0,0h0Zm0,0h0l.06,0h0Z"/><path class="cls-11" d="M253.71,265.51c0,.58-.51.85-.78,1.26s-.46.42-.79.46a1.45,1.45,0,0,1-1-1.12,2.2,2.2,0,0,1,.17-.95,1.12,1.12,0,0,1,.2-.33c.26-.2.54-.37.87-.14A1.55,1.55,0,0,1,253.71,265.51Z"/><path class="cls-11" d="M252.39,264.69l-.88.28a.63.63,0,0,1-1-.08c0-.22.06-.43.08-.64l.44-.1A3.46,3.46,0,0,1,252.39,264.69Z"/><path class="cls-11" d="M251.29,266c.29.37.58.74.86,1.12.06.29-.16.37-.36.46l-.76.23c-.34.24-.55,0-.77-.22l-.24-.27c0-.08,0-.15,0-.22a.58.58,0,0,1,.26-.4C250.63,266.48,250.73,265.88,251.29,266Z"/><path class="cls-11" d="M250.3,265.21a2,2,0,0,1,0-.26l.26-.06,1,.08a.59.59,0,0,1,.05.23C251.14,265.91,250.73,266.1,250.3,265.21Z"/><path class="cls-11" d="M250.27,266.8,250,266l.27-.76c.42.36.84.65,1.26,0,.12.33-.15.52-.27.77C250.72,266,251.08,267.1,250.27,266.8Z"/><path id="_Trazado_2" data-name="&lt;Trazado&gt;" class="cls-7" d="M116.4,133.77c-1.5,5.08-1.65,7.07-5.19,11.18a65.41,65.41,0,0,1-5.4,5.68l2.63-.76s-1.87,1.91-4.49,4.44-7.85,5.62-7.22,5.5,2.87-.83,4.36-1.25l-1.33,1.35c-2.56,1.67-6.07,4.05-6,4.1a9.06,9.06,0,0,0,1.88-.22c-1.33,1.22-2.78,2.52-4.37,3.9.51-.08,4.24-1,8.29-2.09-.52.53-.5.52-1.36,1.35s-2.38,1.79-1.88,1.74a43.2,43.2,0,0,0,6.09-2.39,23.76,23.76,0,0,0,3.55-2.37l.36-.09c-.89,1.15-3.1,4-2.84,3.94,1-.24,5.62-3,5.52-2.86-3.73,6.28-11.19,10.48-10.9,10.48.86,0,5.25-1.19,4.87-.72s-5.06,4.06-7.4,5.78-3.29,2.31-2.87,2.2,1.85-.29,3.81-.68a64.58,64.58,0,0,1-7.72,5.59s2.6-.6,5.84-1.44c-2,1.73-3.6,2.87-3.18,2.87s8-3.15,7.78-2.82S97,188.57,97,188.57a60,60,0,0,0,6-2.65,4.59,4.59,0,0,1,1.2-.71s-2.12,3.06-1.34,2.67,2.71-1,3.22-1.26c-2,6.17-10.08,9.75-10.06,9.75l3.58,0S97.46,198,94.5,200s-6.79,3.88-6.35,3.91a28.25,28.25,0,0,0,3.52,0,141.71,141.71,0,0,1-12.45,7.06l6.23-1.37c-3.24,2.17-6.14,3.87-5.48,3.8s9.07-3.2,8.64-2.87-3.28,2.6-2.72,2.68,5.92-2.44,7.64-3.39,1.86-1,1.86-1-3,4.06-2.43,3.72,5.67-2.12,9.38-5.86c-2.39,5.08-4.47,7.42-9.32,10.21-4.29,2.49-6.68,3.16-5.44,3.16s3.34-.19,3.34-.19,2.8-.59-3.41,3S76,228.48,77.58,228.2c1.26-.23,3.43.3,5,.45-7.2,4.74-13.12,7.14-12,7.28a30.71,30.71,0,0,0,4.65-.91c-2.51,1.77-4.26,3.14-3.52,3.1,1.91-.1,9.65-4,9.17-3.44s-4.87,3.92-3.34,3.44,10.88-5.45,10.6-4.87-4.11,4.58-2,3.15c1.45-1,4.74-2.11,7.5-3.55-1.14,1.39-2.62,3.13-4.35,5-2.16,1.27-4.43,2.52-6.14,3.31-3.92,1.82-4.59,2.58-4.59,2.58l1.91.58s-.19.28-5.73,3.62-9.16,4.21-8.11,4.3,3.15,0,2.67.19S64,255.32,64,255.32a9.31,9.31,0,0,0,2.37.16c-4.24,2.43-7.21,4-6.34,3.94.57-.05,2-.17,4-.39-2.85,1.34-4.87,2.3-4.25,2.3,1.43,0,8.12-1.53,8.12-1.53s-3.35,2.48-2.49,2.2,11.46-3.44,11.46-3.44-2.1,2.87-1.62,2.67,9.07-5.06,9.07-5.06-3,4.3-1.62,3.44c.73-.47,4.53-3.12,7.81-5.42-1.13,1.51-2.57,3.36-4.2,5.31a41.52,41.52,0,0,1-4.88,3c-2.87,1.38-4.49,1.91-4,1.91s2.58.1,2.58.1-.9,1.48-4.1,3.58-5.16,3-4.83,3.05,2.39-.19,2,.1-7,4.54-6.78,4.54a8.12,8.12,0,0,0,2.12,0c-2.72,2-3.89,2.76-2.51,2.55a27,27,0,0,0,3-.81c-1.17,1.09-1.78,1.8-1.36,1.85,1.63.19,6.59-1.72,6.59-1.72s-1.24,1.91-.67,1.63,6.4-3.35,6.4-3.35-.38,2.39.2,1.91,7-5.44,7-5.44l1.31,1.24c-3.37,3.55-6.65,7.08-6.17,6.79a39.51,39.51,0,0,1,4.78-1c-1,1.06-1.69,1.8-1.16,1.77,1.33-.1,7.35-1.82,7.35-1.82s-.76,1.91.38,1.43,9.27-4.1,9.27-4.1-.48,2.58.38,2.29,7.26-4.87,7.26-4.87,0,2.86.58,2.39c.13-.11.57-.62,1.19-1.33v14.5h8.32v-14.5c.61.71,1.06,1.22,1.19,1.33.58.47.58-2.39.58-2.39s6.39,4.58,7.25,4.87.39-2.29.39-2.29,8.12,3.63,9.26,4.1.39-1.43.39-1.43,6,1.72,7.35,1.82c.52,0-.11-.71-1.17-1.77a39.4,39.4,0,0,1,4.79,1c.48.29-2.8-3.24-6.17-6.79l1.31-1.24s6.4,5,7,5.44.19-1.91.19-1.91l6.4,3.35c.58.28-.67-1.63-.67-1.63s5,1.91,6.6,1.72c.41-.05-.19-.76-1.36-1.85a27.59,27.59,0,0,0,3,.81c1.39.21.22-.59-2.5-2.55a8.12,8.12,0,0,0,2.12,0c.24,0-6.35-4.25-6.78-4.54s1.62,0,2-.1-1.62-.95-4.82-3.05-4.1-3.58-4.1-3.58,2.05-.1,2.57-.1-1.09-.53-4-1.91a41.52,41.52,0,0,1-4.88-3c-1.64-1.95-3.07-3.8-4.21-5.31,3.29,2.3,7.09,4.95,7.82,5.42,1.34.86-1.63-3.44-1.63-3.44s8.6,4.87,9.08,5.06-1.63-2.67-1.63-2.67,10.61,3.15,11.47,3.44-2.49-2.2-2.49-2.2,6.69,1.53,8.12,1.53c.61,0-1.41-1-4.26-2.3,2,.22,3.49.34,4.06.39.87.09-2.1-1.51-6.34-3.94a9.31,9.31,0,0,0,2.37-.16s-4.77-2.67-5.25-2.87,1.62-.09,2.67-.19-2.58-.95-8.12-4.3-5.73-3.62-5.73-3.62l1.91-.58s-.67-.76-4.58-2.58c-1.71-.79-4-2-6.14-3.31-1.73-1.89-3.21-3.63-4.35-5,2.75,1.44,6.05,2.56,7.5,3.55,2.1,1.43-1.72-2.58-2-3.15s9.07,4.39,10.6,4.87-2.86-2.87-3.34-3.44,7.26,3.34,9.17,3.44c.74,0-1-1.33-3.52-3.1a30.71,30.71,0,0,0,4.65.91c1.07-.14-4.84-2.54-12-7.28,1.58-.15,3.76-.68,5-.45,1.62.28-3.73-1.72-9.93-5.35s-3.42-3-3.42-3,2.11.19,3.35.19-1.15-.67-5.45-3.16c-4.84-2.79-6.93-5.13-9.31-10.21,3.71,3.74,8.81,5.53,9.38,5.86s-2.44-3.72-2.44-3.72.15,0,1.87,1,7.07,3.47,7.64,3.39-2.3-2.34-2.73-2.68,8,2.8,8.65,2.87-2.24-1.63-5.48-3.8l6.23,1.37a140.06,140.06,0,0,1-12.45-7.06,28.25,28.25,0,0,0,3.52,0c.44,0-3.39-1.91-6.36-3.91s-5.13-3.58-5.13-3.58l3.59,0s-8.09-3.58-10.06-9.75c.51.28,2.44.87,3.22,1.26s-1.34-2.67-1.34-2.67a4.59,4.59,0,0,1,1.2.71,60,60,0,0,0,6,2.65s-2-2-2.25-2.39,7.37,2.82,7.79,2.82-1.16-1.14-3.18-2.87c3.23.84,5.84,1.44,5.84,1.44a64.58,64.58,0,0,1-7.72-5.59c2,.39,3.38.57,3.8.68s-.52-.48-2.86-2.2-7-5.3-7.4-5.78,4,.72,4.87.72c.29,0-7.17-4.2-10.91-10.48-.09-.16,4.54,2.62,5.53,2.86a34.81,34.81,0,0,0-2.84-3.94l.36.09a23.76,23.76,0,0,0,3.55,2.37,42.73,42.73,0,0,0,6.09,2.39c.5.05-1-.92-1.89-1.74s-.83-.82-1.35-1.35c4.05,1.05,7.78,2,8.28,2.09q-2.37-2.07-4.36-3.9A9.06,9.06,0,0,0,139,164c.13,0-3.39-2.43-5.94-4.1l-1.33-1.35c1.49.42,3.73,1.13,4.36,1.25s-4.59-3-7.22-5.5-4.49-4.44-4.49-4.44l2.63.76a65.41,65.41,0,0,1-5.4-5.68C118.05,140.84,117.9,138.85,116.4,133.77Z"/><path id="_Trazado_3" data-name="&lt;Trazado&gt;" class="cls-7" d="M8.61,308.21s-.68,3.69.55,3.28,10.39-7,10.39-7,0,4.1.82,3.42c.18-.16.82-.88,1.7-1.89v20.73H34V306.05c.88,1,1.52,1.73,1.7,1.89.82.68.82-3.42.82-3.42s9.16,6.56,10.39,7,.55-3.28.55-3.28,11.62,5.19,13.26,5.88.54-2,.54-2,8.61,2.46,10.53,2.6c.75.05-.16-1-1.67-2.53a57.4,57.4,0,0,1,6.84,1.44c.69.41-4-4.63-8.82-9.72L70,302.06s9.16,7.11,10,7.79.27-2.73.27-2.73,8.34,4.37,9.16,4.78-1-2.32-1-2.32,7.11,2.73,9.43,2.46c.6-.07-.26-1.09-1.94-2.65a35.9,35.9,0,0,0,4.24,1.15c2,.31.31-.83-3.58-3.64a11.25,11.25,0,0,0,3,0c.34,0-9.09-6.08-9.7-6.49s2.32,0,2.8-.13-2.33-1.37-6.9-4.38-5.88-5.12-5.88-5.12,2.94-.14,3.69-.14-1.57-.75-5.67-2.73a57.79,57.79,0,0,1-7-4.34c-2.34-2.79-4.4-5.43-6-7.59,4.7,3.29,10.13,7.08,11.18,7.75,1.91,1.23-2.32-4.92-2.32-4.92s12.3,7,13,7.24-2.32-3.82-2.32-3.82,15.17,4.51,16.39,4.92S97.32,284,97.32,284s9.57,2.19,11.62,2.19c.87,0-2-1.37-6.1-3.29,2.88.31,5,.49,5.8.57,1.26.12-3-2.16-9.06-5.65a13.12,13.12,0,0,0,3.39-.23s-6.83-3.82-7.52-4.1,2.33-.13,3.83-.27-3.69-1.37-11.61-6.15-8.2-5.19-8.2-5.19l2.73-.82s-1-1.1-6.56-3.69c-2.45-1.14-5.7-2.92-8.78-4.74-2.48-2.71-4.6-5.2-6.23-7.18,3.94,2.06,8.66,3.66,10.73,5.07,3,2.05-2.46-3.69-2.87-4.51s13,6.29,15.17,7-4.1-4.1-4.79-4.92S89.26,252.87,92,253c1.06.06-1.44-1.9-5-4.43a42.53,42.53,0,0,0,6.65,1.3c1.54-.19-6.93-3.63-17.22-10.41,2.26-.23,5.38-1,7.18-.66,2.32.41-5.33-2.46-14.22-7.65s-4.88-4.35-4.88-4.35,3,.27,4.79.27-1.64-.95-7.79-4.51c-6.93-4-9.92-7.34-13.33-14.61,5.31,5.35,12.6,7.91,13.42,8.39S58.08,211,58.08,211s.2.06,2.66,1.43,10.13,5,10.93,4.85-3.28-3.35-3.89-3.83,11.42,4,12.37,4.11-3.21-2.34-7.84-5.44l8.9,2A204.2,204.2,0,0,1,63.41,204a41.52,41.52,0,0,0,5,.06c.64-.05-4.85-2.74-9.09-5.61S52,193.33,52,193.33l5.13-.07s-11.57-5.11-14.39-13.94c.73.4,3.49,1.25,4.61,1.81s-1.92-3.83-1.92-3.83a6.62,6.62,0,0,1,1.71,1c1.5,1,8.57,3.79,8.57,3.79s-2.93-2.93-3.21-3.41,10.55,4,11.14,4-1.66-1.64-4.55-4.11c4.63,1.2,8.35,2.06,8.35,2.06a94.15,94.15,0,0,1-11-8c2.8.57,4.84.82,5.45,1s-.76-.68-4.1-3.14-10-7.58-10.6-8.27,5.74,1,7,1c.42,0-10.25-6-15.6-15-.13-.23,6.49,3.75,7.9,4.1.37.09-2.78-4-4-5.64l.51.13A34.06,34.06,0,0,0,48,150.25a61.38,61.38,0,0,0,8.71,3.42c.72.07-1.47-1.31-2.7-2.5s-1.18-1.17-1.93-1.92c5.8,1.5,11.13,2.87,11.85,3-2.27-2-4.34-3.83-6.25-5.58a13.61,13.61,0,0,0,2.69.32c.18-.08-4.85-3.48-8.51-5.88-.66-.66-1.29-1.3-1.9-1.93,2.13.61,5.34,1.62,6.24,1.79s-6.57-4.24-10.33-7.87-6.42-6.35-6.42-6.35l3.76,1.09a91.69,91.69,0,0,1-7.72-8.13c-5.07-5.87-5.29-8.73-7.43-16-2.15,7.27-2.37,10.13-7.44,16a91.69,91.69,0,0,1-7.72,8.13l3.76-1.09s-2.66,2.73-6.42,6.35"/><path id="_Trazado_4" data-name="&lt;Trazado&gt;" class="cls-7" d="M8.9,178.32a6.62,6.62,0,0,1,1.71-1s-3,4.38-1.92,3.83,3.88-1.41,4.61-1.81"/><path id="_Trazado_5" data-name="&lt;Trazado&gt;" class="cls-7" d="M8.08,150.25a34.06,34.06,0,0,0,5.08-3.39l.51-.13c-1.27,1.64-4.42,5.73-4.05,5.64,1.41-.35,8-4.33,7.89-4.1"/></g><path class="cls-12" d="M264.19,221.21c.14.58-.36.91-.51,1.35A1.73,1.73,0,0,1,264.19,221.21Zm-27.84-9.08c.85,1.11,1.11,1.23,2.33.56a1.31,1.31,0,0,1,.42-.22c1.87-.31,3-1.53,4-3,1.54-2.15,3.93-2.51,6.39-2.37a26.59,26.59,0,0,1,4.45.5,4.23,4.23,0,0,0,2.5-.46c.43-.16.61-.25.68.34.26,2.44.77,4.89.34,7.34-.49,2.77-1.15,5.52-1.73,8.27a1.24,1.24,0,0,1-.1.29,11,11,0,0,0-.62,3c0,.65.18.93.32,1.05a.91.91,0,0,0,.22.09c.64.18.61-.52,1-.68s.43-.59.72-.76.59-.77,1-.3c.26.32-.13.64-.45.84l-.7.46c-.43.26-.86.55-.58,1.13a1.49,1.49,0,0,0,1.37.93c1.46.09,2.15-.9,2.88-1.87.83,1.37.92,1.42,1.74.15a16.39,16.39,0,0,1,2.29-2.48,2.62,2.62,0,0,0,.83-1.61,5.27,5.27,0,0,1,1.19,2.07c.07.41.29.94.74,1a1.39,1.39,0,0,0,1.08-.67,23.66,23.66,0,0,0,1.45-2c.56-.92,1.13-1.09,1.94-.28a6.29,6.29,0,0,0,1.62,1.16,2,2,0,0,0,3-1.09c.33-.75.64-1.52,1-2.3,1.05.3,2.14.65,3.25.92a1.84,1.84,0,0,0,2.43-1.56,6.88,6.88,0,0,0,.22-1.17,6.26,6.26,0,0,0-.12-1.1,22.38,22.38,0,0,0,3.27.46c1.71-.07,2.2-.38,2.18-2.06,0-.74.26-.79.79-.85s1.55.17,1.76-.81a2.4,2.4,0,0,0-.62-2.55c.35-.13.7-.28,1.06-.38,1-.27,1.58-.84,1.14-2a.88.88,0,0,1,.37-1.25c.82-.59.6-2.21-.31-3.06-.16-.15-.48-.11-.54-.48.56-.45,1.33-.53,1.94-1s1-1,.36-1.74c-.34-.39-.43-.77.16-1,1.34-.55.87-1.45.38-2.25-.35-.58-.47-1,.24-1.32s.55-.81.2-1.32-.65-1.19-1.48-1.5c1.43-.77,1.13-2.2,1.59-3.31a18.51,18.51,0,0,0,.61-2.62.8.8,0,0,1,.41-.53c1-.26,1.59-1.17,2.39-1.71a20.19,20.19,0,0,1,5.17-2.53c2.83-.9,5.71-1.57,8.57-2.33,2.11-.56,4.21-1.18,6.32-1.73a4.5,4.5,0,0,0,1.47-.73c1-.67,1-1.29-.09-1.91a5,5,0,0,0-3.57-.29c-3.13.66-6.24,1.43-9.36,2.13-2.66.6-5.34,1.17-8,1.77-.81.18-1.49-.31-2.18-.51a5.62,5.62,0,0,0-3-.27c-2.78.65-5.6.28-8.41.37a24.18,24.18,0,0,0-8.39,1.62c-3.24,1.31-6.67,2.14-10,3.34a16.6,16.6,0,0,0-4.7,2.13,28,28,0,0,1-9.6,4.44c-2.54.74-5.23.87-7.69,2-.83.4-1.92-.09-3,.2a1.68,1.68,0,0,0-1.33,1.53c.06,1.81-1.08,2.93-1.94,4.25a4.15,4.15,0,0,0-.91,2.38,2.71,2.71,0,0,1-1.28,2,4,4,0,0,0-1.58,3.34C235.93,209.61,235.42,210.93,236.35,212.13Zm25,13.37c.16.7-.43,1.09-.61,1.62A2.1,2.1,0,0,1,261.4,225.5Zm-19.7-16.24a6,6,0,0,0-.34-1.56c-.44-.6-.72-1.21-1.45-1.32-.14,0-.45-.34-.06-.49l2.05-1.36c2-1.36,1.77.7.73,2.06A4.27,4.27,0,0,0,241.7,209.26Z"/><path class="cls-13" d="M244.23,153.83c-2.43-.13-6.9,1.22-6.9,1.22.95-.7,2.28-4.84,2.28-4.84a5.33,5.33,0,0,1-3,2,9.69,9.69,0,0,0,1.18-7.93,8.81,8.81,0,0,1-2.92,4.06c1.83-3.89.51-10,.51-10-.31,2-3.15,6.72-3.15,6.72,1.68-4.3-1.29-9.65-1.29-9.65-.14,2.59-3.62,10.11-6.05,14-1.5,2.38,1.19,8.18,1.19,8.18,1.56,3.48-1.84,3.92-1.84,3.92a4.86,4.86,0,0,1-1.84-.24,3.46,3.46,0,0,0-2.85.27,5.21,5.21,0,0,0-2.14,2.36,5,5,0,0,0-.25,3.88,6.22,6.22,0,0,0-1.77,4.26l1.64-1.13s.42.22.67.1,1.05-.75,1.61-1.14a3.71,3.71,0,0,0,3.13-.54,4.47,4.47,0,0,1,4.32-.78c2.31.89,4.5,1,9.36-1C244.31,164.09,246,158,246,158c5.67.46,15.69-3.54,15.69-3.54-.64.15-6,.1-6,.1,3.24-1.14,7.38-4.87,8.3-5.73-2,1.66-9.43,3-9.43,3,1.6-.86,4.65-6.64,4.65-6.64Z"/></g></g></svg>