<?xml version="1.0" encoding="UTF-8" standalone="no"?>
<svg
   xmlns:dc="http://purl.org/dc/elements/1.1/"
   xmlns:cc="http://creativecommons.org/ns#"
   xmlns:rdf="http://www.w3.org/1999/02/22-rdf-syntax-ns#"
   xmlns:svg="http://www.w3.org/2000/svg"
   xmlns="http://www.w3.org/2000/svg"
   xmlns:sodipodi="http://sodipodi.sourceforge.net/DTD/sodipodi-0.dtd"
   xmlns:inkscape="http://www.inkscape.org/namespaces/inkscape"
   inkscape:version="1.0 (4035a4f, 2020-05-01)"
   sodipodi:docname="garrulus.svg"
   id="svg14"
   preserveAspectRatio="xMidYMid meet"
   viewBox="0 0 387.000000 250.000000"
   height="250.000000pt"
   width="387.000000pt"
   version="1.0">
  <metadata
     id="metadata20">
    <rdf:RDF>
      <cc:Work
         rdf:about="">
        <dc:format>image/svg+xml</dc:format>
        <dc:type
           rdf:resource="http://purl.org/dc/dcmitype/StillImage" />
      </cc:Work>
    </rdf:RDF>
  </metadata>
  <defs
     id="defs18" />
  <sodipodi:namedview
     inkscape:current-layer="svg14"
     inkscape:window-maximized="1"
     inkscape:window-y="23"
     inkscape:window-x="0"
     inkscape:cy="166.66667"
     inkscape:cx="258"
     inkscape:zoom="1.4844961"
     showgrid="false"
     id="namedview16"
     inkscape:window-height="774"
     inkscape:window-width="1440"
     inkscape:pageshadow="2"
     inkscape:pageopacity="0"
     guidetolerance="10"
     gridtolerance="10"
     objecttolerance="10"
     borderopacity="1"
     bordercolor="#666666"
     pagecolor="#ffffff" />
  <g
     style="fill:#483737"
     id="g12"
     stroke="none"
     fill="#000000"
     transform="translate(0.000000,250.000000) scale(0.100000,-0.100000)">
    <path
       style="fill:#483737"
       id="path10"
       d="M2805 2063 c-11 -3 -33 -15 -50 -28 -16 -12 -55 -28 -85 -35 -30 -6 -84 -25 -120 -41 -116 -51 -250 -80 -415 -89 -82 -5 -175 -15 -205 -23 -353 -91 -540 -145 -540 -157 0 -5 -10 -12 -22 -15 -13 -4 -78 -43 -145 -86 -67 -43 -141 -86 -165 -95 -38 -15 -128 -95 -128 -114 0 -4 -8 -10 -18 -13 -9 -3 -46 -16 -82 -30 -60 -22 -306 -115 -463 -174 -80 -30 -140 -81 -135 -115 6 -44 55 -35 359 65 295 98 402 121 474 99 17 -5 40 -6 52 -1 22 8 55 -16 151 -108 12 -13 31 -23 40 -23 15 0 18 -9 17 -52 0 -50 1 -53 28 -56 20 -3 27 -9 27 -25 0 -51 11 -67 46 -67 30 0 33 -3 36 -32 l3 -33 57 1 56 1 -5 -33 c-7 -43 18 -84 51 -84 19 0 26 -7 31 -30 8 -35 37 -46 79 -31 35 14 36 14 30 -4 -9 -22 15 -73 37 -80 10 -3 32 1 48 10 30 15 31 15 59 -16 36 -41 61 -36 130 26 46 41 51 44 57 26 9 -29 63 -71 90 -71 16 0 38 17 69 52 25 29 46 56 46 60 0 5 22 -8 49 -27 84 -60 122 -47 157 57 18 56 27 58 106 28 87 -33 90 -31 82 48 -7 65 -6 67 12 50 10 -9 44 -21 74 -26 30 -6 68 -15 83 -21 41 -16 47 -14 47 13 0 18 -7 25 -30 29 -19 4 -35 17 -45 37 l-16 31 38 -20 c21 -11 49 -32 62 -46 16 -17 34 -25 57 -25 19 0 34 5 34 10 0 6 7 10 15 10 16 0 31 43 20 59 -3 6 -24 11 -45 11 -28 0 -42 5 -49 19 -10 18 -9 19 47 6 64 -15 84 -7 64 25 -11 18 -10 20 23 20 40 0 69 33 63 72 -3 20 -8 23 -43 19 -22 -2 -53 -10 -68 -18 -16 -8 -35 -13 -42 -11 -19 4 -251 233 -267 263 -61 114 -98 185 -98 188 0 3 16 8 35 11 21 4 60 28 97 60 73 61 167 123 201 131 22 6 80 -2 184 -26 29 -6 60 -8 70 -4 10 5 34 10 53 12 39 5 60 25 60 61 0 28 -13 54 -54 107 -43 56 -54 63 -114 75 -37 8 -64 22 -88 45 -19 19 -62 43 -98 56 -36 13 -63 25 -62 27 9 8 -73 75 -86 71 -2 -1 -12 -4 -23 -6z m305 -287 c-7 -14 -10 -36 -8 -50 4 -20 2 -24 -11 -17 -9 4 -37 18 -63 30 -76 36 -61 55 52 63 45 4 46 3 30 -26z" />
  </g>
</svg>
