<?xml version="1.0" encoding="UTF-8"?>
<svg xmlns="http://www.w3.org/2000/svg" xmlns:xlink="http://www.w3.org/1999/xlink" width="85.813pt" height="51.7937pt" viewBox="0 0 85.813 51.7937" version="1.1">
<defs>
<clipPath id="clip1">
  <path d="M 0 0 L 85.8125 0 L 85.8125 51.792969 L 0 51.792969 Z M 0 0 "/>
</clipPath>
</defs>
<g id="surface1">
<g clip-path="url(#clip1)" clip-rule="nonzero">
<path style=" stroke:none;fill-rule:nonzero;fill:rgb(22.744751%,22.744751%,22.744751%);fill-opacity:1;" d="M 5.910156 31.910156 C 5.851563 31.285156 5.730469 30.769531 5.578125 30.351563 C 5.128906 29.75 4.855469 29.148438 4.117188 29.035156 C 3.980469 29.011719 3.675781 28.6875 4.066406 28.539063 L 6.113281 27.179688 C 8.160156 25.824219 7.878906 27.878906 6.84375 29.242188 C 5.808594 30.605469 5.910156 31.910156 5.910156 31.910156 M 25.609375 48.15625 C 25.769531 48.851563 25.179688 49.242188 25 49.773438 C 25.015625 49.1875 25.105469 48.625 25.609375 48.15625 M 0.5625 34.785156 C 1.417969 35.894531 1.675781 36.011719 2.890625 35.339844 C 3.027344 35.261719 3.164063 35.144531 3.3125 35.121094 C 5.183594 34.816406 6.285156 33.59375 7.34375 32.109375 C 8.878906 29.960938 11.269531 29.605469 13.734375 29.738281 C 15.226563 29.816406 16.722656 29.917969 18.1875 30.246094 C 19.09375 30.449219 19.886719 30.082031 20.679688 29.785156 C 21.117188 29.617188 21.296875 29.53125 21.359375 30.121094 C 21.621094 32.5625 22.136719 35.011719 21.703125 37.464844 C 21.210938 40.238281 20.550781 42.980469 19.972656 45.738281 C 19.949219 45.839844 19.917969 45.933594 19.875 46.019531 C 19.675781 46.636719 19.226563 48.121094 19.253906 49.035156 C 19.269531 49.679688 19.433594 49.960938 19.574219 50.078125 C 19.632813 50.117188 19.707031 50.148438 19.792969 50.171875 C 20.429688 50.355469 20.40625 49.648438 20.785156 49.496094 C 21.148438 49.351563 21.210938 48.90625 21.507813 48.734375 C 21.796875 48.566406 22.09375 47.964844 22.464844 48.433594 C 22.71875 48.753906 22.335938 49.074219 22.015625 49.269531 C 21.777344 49.417969 21.550781 49.585938 21.308594 49.730469 C 20.882813 49.992188 20.453125 50.285156 20.730469 50.863281 C 20.992188 51.414063 21.394531 51.746094 22.097656 51.789063 C 23.558594 51.878906 24.25 50.894531 24.980469 49.925781 C 25.816406 51.289063 25.90625 51.339844 26.71875 50.074219 C 27.351563 49.09375 28.230469 48.390625 29.015625 47.59375 C 29.421875 47.179688 29.707031 46.78125 29.839844 45.984375 C 30.398438 46.761719 30.890625 47.273438 31.03125 48.054688 C 31.101563 48.464844 31.328125 48.992188 31.777344 49.035156 C 32.191406 49.078125 32.578125 48.714844 32.847656 48.363281 C 33.347656 47.710938 33.867188 47.0625 34.296875 46.363281 C 34.859375 45.445313 35.429688 45.273438 36.246094 46.078125 C 36.714844 46.542969 37.25 46.941406 37.859375 47.246094 C 39.199219 47.921875 40.253906 47.566406 40.875 46.152344 C 41.207031 45.398438 41.515625 44.636719 41.847656 43.851563 C 42.894531 44.152344 43.980469 44.5 45.089844 44.769531 C 46.351563 45.082031 47.226563 44.5 47.523438 43.214844 C 47.613281 42.828125 47.722656 42.433594 47.742188 42.039063 C 47.761719 41.6875 47.667969 41.332031 47.617188 40.9375 C 48.71875 41.054688 49.765625 41.449219 50.890625 41.402344 C 52.601563 41.332031 53.089844 41.019531 53.078125 39.347656 C 53.070313 38.601563 53.335938 38.554688 53.867188 38.492188 C 54.535156 38.414063 55.414063 38.664063 55.621094 37.683594 C 55.8125 36.796875 55.847656 35.890625 55 35.132813 C 55.355469 35.003906 55.699219 34.847656 56.058594 34.753906 C 57.113281 34.484375 57.636719 33.910156 57.203125 32.789063 C 57 32.265625 57.011719 31.929688 57.570313 31.539063 C 58.398438 30.957031 58.175781 29.332031 57.265625 28.484375 C 57.097656 28.328125 56.78125 28.375 56.71875 28 C 57.277344 27.554688 58.050781 27.46875 58.664063 27.03125 C 59.398438 26.511719 59.664063 26.039063 59.027344 25.296875 C 58.683594 24.898438 58.589844 24.519531 59.183594 24.277344 C 60.515625 23.726563 60.050781 22.828125 59.5625 22.019531 C 59.214844 21.4375 59.097656 21.070313 59.800781 20.699219 C 60.390625 20.390625 60.355469 19.894531 60 19.382813 C 59.613281 18.839844 59.347656 18.195313 58.519531 17.882813 C 59.949219 17.117188 59.65625 15.675781 60.113281 14.574219 C 60.457031 13.761719 60.5 12.824219 60.71875 11.953125 C 60.769531 11.75 60.957031 11.472656 61.128906 11.425781 C 62.171875 11.164063 62.722656 10.25 63.527344 9.710938 C 65.113281 8.644531 66.808594 7.78125 68.6875 7.183594 C 71.515625 6.285156 74.402344 5.617188 77.261719 4.851563 C 79.371094 4.289063 81.46875 3.667969 83.585938 3.128906 C 84.160156 2.980469 84.597656 2.695313 85.050781 2.394531 C 86.089844 1.71875 86.070313 1.105469 84.964844 0.480469 C 83.832031 -0.15625 82.582031 -0.0585938 81.390625 0.191406 C 78.261719 0.855469 75.15625 1.617188 72.035156 2.324219 C 69.367188 2.925781 66.695313 3.496094 64.03125 4.09375 C 63.226563 4.269531 62.542969 3.777344 61.851563 3.582031 C 60.839844 3.296875 59.910156 3.066406 58.875 3.308594 C 56.09375 3.964844 53.265625 3.59375 50.460938 3.683594 C 47.597656 3.777344 44.808594 4.195313 42.078125 5.300781 C 38.835938 6.613281 35.402344 7.445313 32.105469 8.640625 C 30.496094 9.222656 28.808594 9.6875 27.402344 10.777344 C 24.542969 12.976563 21.230469 14.21875 17.808594 15.214844 C 15.261719 15.953125 12.570313 16.082031 10.113281 17.257813 C 9.285156 17.652344 8.191406 17.167969 7.144531 17.457031 C 6.171875 17.722656 5.792969 18.507813 5.808594 18.980469 C 5.875 20.789063 4.734375 21.910156 3.871094 23.234375 C 3.414063 23.933594 2.941406 24.667969 2.960938 25.609375 C 2.980469 26.515625 2.308594 27.132813 1.683594 27.648438 C 0.605469 28.535156 0.0625 29.628906 0.105469 30.992188 C 0.148438 32.261719 -0.371094 33.582031 0.5625 34.785156 "/>
</g>
</g>
</svg>
