<?xml version="1.0" encoding="UTF-8" standalone="no"?>
<svg
   xmlns:dc="http://purl.org/dc/elements/1.1/"
   xmlns:cc="http://creativecommons.org/ns#"
   xmlns:rdf="http://www.w3.org/1999/02/22-rdf-syntax-ns#"
   xmlns:svg="http://www.w3.org/2000/svg"
   xmlns="http://www.w3.org/2000/svg"
   viewBox="0 0 64.63253 48.769199"
   height="48.769199"
   width="64.63253"
   xml:space="preserve"
   id="svg2"
   version="1.1"><metadata
     id="metadata8"><rdf:RDF><cc:Work
         rdf:about=""><dc:format>image/svg+xml</dc:format><dc:type
           rdf:resource="http://purl.org/dc/dcmitype/StillImage" /></cc:Work></rdf:RDF></metadata><defs
     id="defs6"><clipPath
       id="clipPath18"
       clipPathUnits="userSpaceOnUse"><path
         id="path16"
         d="M 0,36.577 H 48.474 V 0 H 0 Z" /></clipPath></defs><g
     transform="matrix(1.3333333,0,0,-1.3333333,0,48.7692)"
     id="g10"><g
       id="g12"><g
         clip-path="url(#clipPath18)"
         id="g14"><g
           transform="translate(28.8077,18.1986)"
           id="g20"><path
             id="path22"
             style="fill:#3a3a3a;fill-opacity:1;fill-rule:nonzero;stroke:none"
             d="m 0,0 c -2.429,0.124 -6.906,-1.222 -6.906,-1.222 0.955,0.701 2.285,4.839 2.285,4.839 C -5.712,2 -7.569,1.578 -7.569,1.578 -5.018,5.806 -6.39,9.504 -6.39,9.504 -6.93,7.27 -9.313,5.45 -9.313,5.45 c 1.829,3.89 0.512,9.992 0.512,9.992 -0.317,-1.999 -3.155,-6.715 -3.155,-6.715 1.681,4.299 -1.289,9.651 -1.289,9.651 -0.143,-2.59 -3.621,-10.114 -6.046,-13.95 -1.506,-2.384 1.19,-8.178 1.19,-8.178 1.556,-3.487 -1.844,-3.925 -1.844,-3.925 -0.737,-0.078 -1.39,0.12 -1.837,0.241 -1.811,0.492 -2.848,-0.271 -2.848,-0.271 -0.876,-0.488 -1.651,-1.301 -2.147,-2.357 -0.621,-1.323 -0.669,-2.738 -0.242,-3.877 -0.508,-0.553 -1.929,-2.288 -1.777,-4.26 l 1.638,1.129 c 0,0 0.424,-0.224 0.672,-0.104 0.163,0.078 1.049,0.746 1.609,1.138 1.025,-0.315 2.156,-0.093 3.129,0.541 0.762,0.496 2.267,1.573 4.321,0.786 2.318,-0.889 4.5,-1.012 9.36,1.029 8.146,3.422 9.794,9.533 9.794,9.533 5.665,-0.457 15.685,3.542 15.685,3.542 -0.637,-0.153 -6.041,-0.102 -6.041,-0.102 3.234,1.144 7.373,4.874 8.296,5.729 -1.961,-1.65 -9.428,-2.964 -9.428,-2.964 1.593,0.863 4.645,6.638 4.645,6.638 z" /></g></g></g></g></svg>