<?xml version="1.0" encoding="UTF-8" standalone="no"?>
<svg
   xmlns:dc="http://purl.org/dc/elements/1.1/"
   xmlns:cc="http://creativecommons.org/ns#"
   xmlns:rdf="http://www.w3.org/1999/02/22-rdf-syntax-ns#"
   xmlns:svg="http://www.w3.org/2000/svg"
   xmlns="http://www.w3.org/2000/svg"
   viewBox="0 0 88.6604 62.157066"
   height="62.157066"
   width="88.6604"
   xml:space="preserve"
   id="svg2"
   version="1.1"><metadata
     id="metadata8"><rdf:RDF><cc:Work
         rdf:about=""><dc:format>image/svg+xml</dc:format><dc:type
           rdf:resource="http://purl.org/dc/dcmitype/StillImage" /></cc:Work></rdf:RDF></metadata><defs
     id="defs6"><clipPath
       id="clipPath18"
       clipPathUnits="userSpaceOnUse"><path
         id="path16"
         d="M 0,46.618 H 66.495 V 0 H 0 Z" /></clipPath></defs><g
     transform="matrix(1.3333333,0,0,-1.3333333,0,62.157067)"
     id="g10"><g
       id="g12"><g
         clip-path="url(#clipPath18)"
         id="g14"><g
           transform="translate(61.5931,40.9581)"
           id="g20"><path
             id="path22"
             style="fill:#3a3a3a;fill-opacity:1;fill-rule:nonzero;stroke:none"
             d="m 0,0 c 0,0 4.902,-1.064 4.902,-1.951 0,-0.887 -3.572,0 -4.902,-0.798 -1.33,-0.799 -1.418,-4.345 -2.66,-5.587 0,0 0.709,-3.99 -0.709,-6.207 -1.419,-2.217 0.177,-8.069 -16.05,-13.566 0,0 1.209,-2.474 4.525,-2.616 0,0 1.105,0.82 1.889,0.642 0,0 -0.855,-0.107 -1.212,-0.642 0,0 6.382,0.392 6.738,-0.927 0,0 -0.962,0.57 -1.71,0.214 -0.749,-0.357 0.142,-0.75 -1.499,-0.571 -1.639,0.178 -4.099,0.535 -5.418,0.428 0,0 0.495,-0.69 2.21,-0.472 1.715,0.218 1.604,-1.596 1.604,-1.596 0,0 -0.463,1.07 -1.568,0.82 -1.105,-0.249 -2.46,0.142 -4.1,1.391 0,0 -2.852,0.606 -4.671,0.57 0,0 -1.034,-0.32 -1.248,0.25 0,0 -1.461,0.178 -2.21,-0.607 0,0 0.499,1.391 2.389,1.142 1.889,-0.25 5.347,-0.5 4.741,0.071 -0.605,0.57 -1.532,1.676 -1.532,1.676 0,0 -5.563,-0.499 -8.023,0.392 0,0 4.743,-9.163 7.202,-9.912 0,0 2.746,0 3.922,0.463 1.176,0.463 1.426,-0.035 1.533,-0.463 0,0 -0.606,0.535 -1.176,0.178 -0.571,-0.356 0.142,-0.499 -1.106,-0.57 -1.248,-0.071 -0.82,-0.285 -0.82,-0.285 0,0 3.174,-0.607 5.206,0 2.032,0.605 2.425,-0.535 2.566,-0.785 0,0 -1.105,0.891 -1.96,0.178 -0.856,-0.713 -0.286,-0.641 -1.426,-0.606 -1.141,0.036 -3.245,-0.021 -3.245,-0.021 0,0 0.785,-0.371 0.677,-1.191 0,0 -0.676,0.927 -1.675,0.749 -0.998,-0.179 -2.532,0 -4.065,1.319 0,0 -3.814,-0.749 -5.098,0.285 -1.284,1.034 -1.461,2.033 -3.316,0.606 0,0 0.377,1.747 2.97,0.82 0,0 1.059,-1.818 4.375,-0.464 0,0 -4.386,7.809 -6.382,9.984 -1.996,2.175 -4.671,3.173 -5.883,4.599 0,0 -4.207,0.463 -9.127,1.889 0,0 -9.772,-2.822 -14.044,-5.176 0,0 -0.784,0.524 1.744,1.918 0,0 -3.375,-1.482 -3.911,-0.697 -0.535,0.784 4.172,3.748 17.335,8.281 0,0 3.574,2.267 5.405,3.138 1.831,0.872 0.698,2.006 4.708,4.359 4.009,2.354 4.358,6.364 14.295,8.979 0,0 6.103,6.363 11.333,6.015 C -3.246,5.297 -0.98,2.45 0,0" /></g></g></g></g></svg>