<?xml version="1.0" encoding="UTF-8" standalone="no"?>
<svg
   xmlns:dc="http://purl.org/dc/elements/1.1/"
   xmlns:cc="http://creativecommons.org/ns#"
   xmlns:rdf="http://www.w3.org/1999/02/22-rdf-syntax-ns#"
   xmlns:svg="http://www.w3.org/2000/svg"
   xmlns="http://www.w3.org/2000/svg"
   xmlns:sodipodi="http://sodipodi.sourceforge.net/DTD/sodipodi-0.dtd"
   xmlns:inkscape="http://www.inkscape.org/namespaces/inkscape"
   inkscape:version="1.0 (4035a4f, 2020-05-01)"
   sodipodi:docname="smallbird.svg"
   id="svg26"
   preserveAspectRatio="xMidYMid meet"
   viewBox="0 0 1494.000000 981.000000"
   height="981.000000pt"
   width="1494.000000pt"
   version="1.0">
  <metadata
     id="metadata32">
    <rdf:RDF>
      <cc:Work
         rdf:about="">
        <dc:format>image/svg+xml</dc:format>
        <dc:type
           rdf:resource="http://purl.org/dc/dcmitype/StillImage" />
      </cc:Work>
    </rdf:RDF>
  </metadata>
  <defs
     id="defs30" />
  <sodipodi:namedview
     inkscape:current-layer="svg26"
     inkscape:window-maximized="1"
     inkscape:window-y="23"
     inkscape:window-x="0"
     inkscape:cy="819.56962"
     inkscape:cx="996"
     inkscape:zoom="0.31723122"
     showgrid="false"
     id="namedview28"
     inkscape:window-height="774"
     inkscape:window-width="1440"
     inkscape:pageshadow="2"
     inkscape:pageopacity="0"
     guidetolerance="10"
     gridtolerance="10"
     objecttolerance="10"
     borderopacity="1"
     bordercolor="#666666"
     pagecolor="#ffffff" />
  <g
     style="fill:#ffdd55"
     id="g24"
     stroke="none"
     fill="#000000"
     transform="translate(0.000000,981.000000) scale(0.100000,-0.100000)">
    <path
       style="fill:#ffdd55"
       id="path22"
       d="M13665 8933 c-16 -2 -55 -11 -85 -20 -30 -8 -73 -19 -95 -24 -55 -14 -104 -26 -145 -37 -19 -6 -60 -17 -92 -26 -31 -8 -103 -29 -160 -47 -56 -17 -130 -39 -163 -49 -85 -25 -216 -69 -240 -80 -11 -5 -40 -16 -65 -24 -46 -14 -119 -41 -155 -56 -11 -5 -58 -23 -105 -41 -47 -17 -107 -42 -135 -54 -27 -12 -66 -28 -85 -35 -19 -7 -54 -21 -77 -31 -24 -11 -47 -19 -53 -19 -6 0 -18 -4 -28 -9 -19 -10 -25 -13 -247 -106 -88 -37 -176 -74 -195 -82 -19 -8 -44 -19 -55 -23 -11 -4 -37 -15 -57 -24 -21 -9 -55 -23 -75 -32 -21 -9 -47 -20 -58 -24 -11 -4 -36 -15 -55 -23 -111 -49 -150 -65 -304 -128 -93 -38 -177 -69 -187 -69 -10 0 -21 -4 -24 -10 -3 -5 -16 -10 -29 -10 -12 0 -26 -4 -32 -9 -5 -5 -65 -23 -134 -40 -69 -18 -139 -37 -155 -42 -42 -12 -207 -48 -280 -60 -33 -5 -87 -14 -120 -20 -285 -48 -380 -54 -835 -54 -394 0 -495 4 -885 35 -268 22 -502 38 -855 60 -96 5 -188 12 -205 15 -16 3 -91 7 -165 10 -74 4 -141 8 -148 11 -8 2 -64 6 -125 9 -170 7 -456 24 -607 36 -74 5 -358 14 -630 19 -539 10 -598 16 -750 73 -111 42 -175 96 -329 281 -173 207 -225 248 -541 419 -30 17 -66 38 -80 47 -63 42 -271 120 -395 149 -209 47 -289 56 -510 56 -391 0 -702 -67 -990 -212 -151 -77 -243 -156 -421 -362 -161 -187 -160 -185 -204 -351 -27 -98 -70 -200 -105 -245 -13 -18 -50 -46 -82 -62 -149 -77 -364 -211 -445 -277 -29 -24 -74 -70 -100 -104 l-48 -60 43 -20 c125 -58 281 -89 467 -92 163 -2 235 -14 275 -44 83 -64 131 -120 144 -171 18 -70 70 -200 131 -330 28 -60 55 -119 60 -130 154 -341 143 -306 137 -409 -3 -50 -16 -140 -28 -201 -19 -99 -20 -118 -9 -190 47 -309 200 -649 431 -955 168 -223 547 -626 723 -769 202 -164 298 -232 460 -325 159 -91 499 -257 646 -315 74 -29 144 -57 155 -61 35 -14 129 -47 170 -59 22 -7 56 -18 75 -25 51 -19 224 -56 400 -86 115 -19 222 -40 280 -55 14 -4 60 -10 104 -14 49 -5 81 -13 87 -22 10 -17 -40 -70 -201 -212 -275 -243 -491 -410 -778 -601 -57 -38 -124 -88 -150 -111 -62 -55 -82 -65 -134 -65 -24 0 -48 -4 -53 -8 -45 -39 -235 -49 -295 -16 -62 35 -112 43 -280 45 -192 2 -231 -6 -296 -64 -48 -42 -56 -70 -23 -88 18 -9 25 -7 48 15 26 25 78 35 94 19 4 -3 -13 -28 -38 -54 -50 -54 -140 -187 -131 -196 3 -3 43 16 88 41 117 67 227 118 246 114 8 -2 16 -13 17 -26 1 -13 12 -33 24 -45 21 -22 23 -22 349 -19 239 2 338 7 367 17 44 14 118 42 150 55 22 10 55 15 163 30 40 5 76 12 81 14 5 3 181 6 392 7 364 1 385 2 424 21 84 42 102 80 69 143 -14 28 -14 31 5 46 26 21 133 43 168 35 42 -11 124 -55 156 -84 15 -14 41 -31 59 -37 54 -18 57 -37 13 -92 -48 -58 -134 -143 -242 -240 -62 -55 -82 -80 -87 -106 -8 -40 -34 -66 -101 -100 -252 -127 -305 -135 -456 -72 -71 30 -137 32 -228 6 -57 -16 -115 -29 -209 -47 -35 -7 -62 -60 -62 -121 0 -29 3 -53 6 -53 4 0 26 18 50 40 70 64 128 81 94 27 -48 -75 -89 -171 -95 -222 -11 -85 4 -86 62 -8 64 85 87 106 147 137 56 28 76 25 76 -13 0 -42 37 -71 92 -71 26 0 59 5 74 10 15 6 121 15 236 20 229 11 252 17 396 104 172 104 188 108 412 117 102 4 205 12 230 19 25 7 72 14 105 16 287 18 368 43 411 126 20 39 17 65 -11 114 -23 38 -23 44 -10 58 25 24 92 38 190 40 75 1 98 -3 137 -22 64 -31 126 -89 189 -173 57 -78 69 -77 61 4 -7 80 -52 169 -119 235 -98 97 -201 142 -327 142 -63 0 -95 -11 -236 -78 -141 -67 -167 -78 -225 -97 -27 -9 -70 -26 -95 -37 -102 -47 -137 -61 -185 -74 -62 -17 -60 -17 -80 2 -14 15 -13 19 17 48 22 22 38 50 47 86 21 81 108 222 253 409 51 65 134 174 183 242 131 179 232 296 336 390 289 261 328 308 375 456 19 59 41 114 47 120 7 7 44 19 83 26 88 17 135 44 249 144 50 43 110 94 135 114 153 123 266 250 456 509 42 58 130 168 194 245 131 156 169 211 262 370 223 382 264 486 275 691 6 125 -10 101 128 190 127 82 273 245 480 535 111 156 179 226 293 302 129 86 187 150 241 262 24 50 54 104 66 121 24 31 120 91 300 185 55 28 132 69 170 89 39 21 96 52 127 69 32 16 101 55 154 86 52 30 98 55 101 55 3 0 17 8 31 18 15 11 56 35 92 54 55 30 293 166 420 241 19 11 71 40 115 65 44 24 85 48 90 52 6 4 35 21 65 37 30 17 71 39 90 50 19 11 71 39 115 63 44 23 85 46 90 50 41 30 649 334 795 397 19 8 53 23 75 33 216 97 335 150 340 150 3 0 25 9 50 20 25 11 65 29 90 40 25 11 51 20 58 20 7 0 17 4 23 8 5 5 86 39 179 76 94 37 179 72 190 76 11 4 47 18 80 30 56 21 71 26 128 49 12 5 31 12 42 16 19 6 18 8 -9 30 -35 28 -59 35 -151 44 -68 6 -70 7 -67 31 2 17 -6 34 -23 50 -22 20 -36 24 -108 26 -45 1 -95 0 -112 -3z m-7154 -6060 c13 -33 5 -152 -12 -184 -6 -12 -37 -49 -68 -83 -31 -34 -68 -77 -82 -96 -14 -19 -91 -123 -171 -230 -79 -107 -172 -233 -207 -280 -35 -47 -69 -88 -76 -93 -10 -5 -21 6 -39 35 -45 77 -122 138 -212 167 -44 14 -205 10 -284 -7 -25 -6 -63 -13 -85 -17 -103 -16 -167 -30 -220 -51 -11 -4 -54 -15 -95 -25 -41 -10 -103 -25 -137 -34 -34 -10 -69 -15 -78 -11 -25 9 -17 35 20 58 20 13 53 50 74 84 44 69 571 603 647 655 72 49 129 67 239 73 242 14 654 52 663 60 3 3 29 6 59 6 49 0 54 -2 64 -27z" />
  </g>
</svg>
