<?xml version="1.0" encoding="UTF-8" standalone="no"?>
<svg
   xmlns:dc="http://purl.org/dc/elements/1.1/"
   xmlns:cc="http://creativecommons.org/ns#"
   xmlns:rdf="http://www.w3.org/1999/02/22-rdf-syntax-ns#"
   xmlns:svg="http://www.w3.org/2000/svg"
   xmlns="http://www.w3.org/2000/svg"
   xmlns:sodipodi="http://sodipodi.sourceforge.net/DTD/sodipodi-0.dtd"
   xmlns:inkscape="http://www.inkscape.org/namespaces/inkscape"
   inkscape:version="1.0 (4035a4f, 2020-05-01)"
   sodipodi:docname="vulpes.svg"
   id="svg14"
   preserveAspectRatio="xMidYMid meet"
   viewBox="0 0 737.000000 374.000000"
   height="374.000000pt"
   width="737.000000pt"
   version="1.0">
  <metadata
     id="metadata20">
    <rdf:RDF>
      <cc:Work
         rdf:about="">
        <dc:format>image/svg+xml</dc:format>
        <dc:type
           rdf:resource="http://purl.org/dc/dcmitype/StillImage" />
      </cc:Work>
    </rdf:RDF>
  </metadata>
  <defs
     id="defs18" />
  <sodipodi:namedview
     inkscape:current-layer="svg14"
     inkscape:window-maximized="1"
     inkscape:window-y="23"
     inkscape:window-x="0"
     inkscape:cy="249.33333"
     inkscape:cx="491.33333"
     inkscape:zoom="0.77951153"
     showgrid="false"
     id="namedview16"
     inkscape:window-height="774"
     inkscape:window-width="1440"
     inkscape:pageshadow="2"
     inkscape:pageopacity="0"
     guidetolerance="10"
     gridtolerance="10"
     objecttolerance="10"
     borderopacity="1"
     bordercolor="#666666"
     pagecolor="#ffffff" />
  <g
     style="fill:#a05a2c"
     id="g12"
     stroke="none"
     fill="#000000"
     transform="translate(0.000000,374.000000) scale(0.100000,-0.100000)">
    <path
       style="fill:#a05a2c"
       id="path10"
       d="M6085 3293 c-16 -8 -37 -24 -46 -36 -15 -19 -18 -19 -40 -3 -13 9 -39 16 -59 16 -68 -1 -100 -55 -100 -170 l0 -66 -72 -11 c-70 -10 -183 -40 -258 -68 -37 -14 -125 -43 -225 -74 -33 -11 -113 -38 -178 -60 -66 -23 -125 -41 -133 -41 -8 0 -41 -9 -75 -21 -33 -12 -99 -30 -147 -40 -48 -11 -105 -24 -127 -30 -22 -5 -121 -12 -220 -15 -178 -5 -251 1 -380 35 -155 40 -911 40 -1170 0 -33 -5 -112 -16 -175 -24 -63 -8 -133 -21 -155 -29 -68 -24 -144 -36 -290 -46 -180 -11 -245 -26 -319 -76 -92 -61 -168 -102 -202 -108 -18 -4 -37 -13 -44 -21 -7 -8 -19 -15 -26 -15 -13 0 -94 -32 -199 -79 -22 -10 -76 -33 -120 -51 -148 -62 -468 -223 -504 -253 -9 -8 -31 -20 -49 -28 -17 -8 -32 -17 -32 -21 0 -4 -15 -15 -32 -24 -18 -9 -40 -23 -48 -30 -8 -8 -42 -36 -76 -63 -133 -109 -244 -278 -244 -374 0 -33 24 -45 112 -54 32 -3 61 -10 64 -14 8 -13 264 -11 264 1 0 6 20 10 45 10 60 0 265 28 290 40 11 5 60 16 110 25 49 9 92 20 95 24 3 4 46 16 95 25 50 10 95 21 100 26 6 4 44 16 85 26 41 10 77 21 80 25 3 3 37 14 75 24 39 10 72 21 75 25 3 3 37 15 75 25 39 10 72 21 75 25 3 3 34 15 70 25 36 10 67 22 70 25 3 3 25 12 50 20 25 8 61 22 80 32 39 20 98 28 100 14 1 -5 -16 -19 -37 -30 -21 -12 -45 -27 -53 -34 -40 -33 -110 -82 -119 -82 -6 0 -11 -4 -11 -9 0 -6 -18 -20 -40 -32 -22 -13 -40 -26 -40 -30 0 -4 -28 -12 -62 -19 -42 -7 -74 -21 -94 -38 -38 -33 -234 -277 -234 -292 0 -5 -4 -10 -8 -10 -10 0 -92 -123 -92 -138 0 -7 -4 -12 -8 -12 -5 0 -17 -19 -28 -42 -10 -24 -23 -46 -28 -50 -5 -3 -12 -34 -14 -67 -3 -47 -1 -61 9 -61 8 0 19 -10 24 -22 9 -21 16 -23 80 -20 52 2 73 8 82 20 7 9 16 22 21 28 5 5 17 33 26 62 10 29 21 52 24 52 4 0 15 20 25 44 10 24 25 47 33 50 8 3 14 10 14 17 0 28 128 163 200 209 25 17 54 37 65 45 11 9 37 21 57 27 21 6 38 14 38 18 0 12 50 18 220 31 85 6 157 14 160 18 7 10 160 40 154 30 -7 -12 -123 -99 -131 -99 -4 0 -29 -15 -55 -32 -43 -29 -48 -37 -48 -70 0 -20 4 -39 9 -42 4 -3 11 -25 15 -48 7 -45 27 -110 37 -118 3 -3 11 -21 19 -40 7 -19 19 -42 25 -50 7 -8 20 -30 30 -49 9 -19 26 -43 36 -54 10 -12 19 -25 19 -31 0 -5 7 -16 15 -25 8 -9 30 -34 49 -55 33 -37 38 -39 109 -44 42 -2 132 -1 201 3 112 6 126 9 126 25 0 33 -67 62 -157 68 -46 2 -83 9 -83 14 0 26 -41 96 -82 139 -24 26 -48 75 -48 99 0 11 -4 20 -10 20 -15 0 -12 22 9 66 23 46 29 53 91 86 29 16 78 30 138 38 50 7 92 17 92 21 0 5 8 9 19 9 27 0 124 32 138 46 6 6 26 17 44 25 18 7 41 20 51 29 9 8 30 25 45 38 82 67 103 87 103 98 0 6 11 19 25 28 14 9 25 23 25 31 0 8 6 18 14 22 7 4 29 40 47 78 l35 70 61 -1 c37 0 71 -7 85 -16 13 -8 48 -23 78 -33 30 -10 57 -21 60 -25 3 -4 39 -15 80 -24 41 -10 84 -22 95 -26 26 -12 220 -40 274 -40 22 0 41 -4 41 -9 0 -5 47 -12 105 -16 l105 -7 0 -30 c0 -39 20 -118 31 -118 4 0 11 -10 15 -22 6 -19 57 -101 82 -133 13 -17 42 -94 42 -114 0 -43 -71 -69 -208 -74 -86 -3 -95 -5 -118 -31 -27 -29 -44 -74 -44 -118 0 -24 4 -28 29 -28 17 0 33 -4 36 -10 8 -12 177 -13 190 -1 6 5 34 16 63 26 28 9 52 20 52 25 0 4 37 11 83 15 45 4 93 11 106 16 25 10 60 47 61 66 0 6 5 13 11 15 15 5 17 177 2 186 -5 4 -16 32 -23 62 -7 30 -18 64 -25 75 -13 21 -28 90 -40 178 l-6 47 47 0 c28 0 68 -9 97 -22 55 -25 77 -62 77 -129 0 -22 4 -39 9 -39 5 0 11 -13 14 -30 9 -40 62 -91 126 -117 20 -8 38 -19 41 -23 7 -9 99 -40 122 -40 10 0 18 -4 18 -9 0 -5 44 -17 98 -27 53 -10 99 -21 102 -24 3 -4 38 -15 78 -25 39 -9 72 -20 72 -24 0 -4 21 -13 48 -20 26 -7 56 -19 67 -25 11 -7 42 -21 70 -31 27 -10 56 -25 63 -32 7 -7 19 -13 26 -13 7 0 21 -8 32 -18 11 -10 33 -27 49 -38 17 -10 36 -27 43 -36 7 -10 19 -18 27 -18 8 0 19 -9 25 -20 6 -11 15 -20 21 -20 5 0 29 -9 51 -20 43 -20 128 -28 128 -11 0 5 10 13 23 16 12 4 37 23 55 42 25 26 32 43 32 73 0 50 -32 74 -118 90 -34 6 -88 25 -121 43 -77 42 -204 127 -214 144 -4 7 -13 13 -19 13 -6 0 -30 16 -54 35 -23 19 -47 35 -53 35 -6 0 -11 4 -11 9 0 9 -90 55 -160 82 -19 7 -41 19 -50 27 -27 24 -119 82 -130 82 -5 0 -10 4 -10 9 0 5 -15 18 -32 30 -87 55 -108 73 -114 96 -3 14 -2 31 3 38 6 6 16 41 23 77 6 36 20 84 31 107 10 23 19 46 19 51 0 15 121 142 185 194 78 63 73 60 122 83 24 11 43 23 43 27 0 3 23 11 50 18 60 14 133 6 157 -18 46 -46 159 -131 182 -137 14 -4 29 -11 32 -17 4 -6 36 -11 71 -12 61 -1 63 0 66 26 2 19 -6 36 -30 61 -81 83 -119 129 -114 134 3 4 6 1 6 -5 0 -5 20 -18 45 -28 25 -9 45 -20 45 -24 0 -10 103 -30 151 -30 43 0 90 15 101 33 16 26 8 74 -14 89 -48 31 -178 171 -195 209 -9 21 -20 39 -24 39 -4 0 -12 30 -19 67 -12 60 -62 179 -82 193 -4 3 -14 22 -23 43 -8 20 -20 37 -25 37 -6 0 -15 11 -20 25 -5 14 -17 28 -25 31 -8 4 -15 12 -15 19 0 7 -7 18 -15 25 -8 7 -15 23 -15 36 0 13 -4 24 -10 24 -5 0 -10 15 -10 33 0 46 -27 146 -45 164 -8 8 -15 21 -15 28 0 13 -53 45 -74 45 -6 -1 -24 -8 -41 -17z m-3335 -1787 c0 -3 -4 -8 -10 -11 -5 -3 -10 -1 -10 4 0 6 5 11 10 11 6 0 10 -2 10 -4z" />
  </g>
</svg>
