<?xml version="1.0" encoding="UTF-8"?>
<svg xmlns="http://www.w3.org/2000/svg" xmlns:xlink="http://www.w3.org/1999/xlink" width="183.416pt" height="76.4929pt" viewBox="0 0 183.416 76.4929" version="1.1">
<defs>
<clipPath id="clip1">
  <path d="M 0 0 L 183.414063 0 L 183.414063 76.492188 L 0 76.492188 Z M 0 0 "/>
</clipPath>
</defs>
<g id="surface1">
<g clip-path="url(#clip1)" clip-rule="nonzero">
<path style=" stroke:none;fill-rule:evenodd;fill:rgb(22.744751%,22.744751%,22.744751%);fill-opacity:1;" d="M 179.207031 33.171875 C 179.214844 33.171875 179.214844 33.167969 179.222656 33.167969 C 179.222656 33.167969 179.226563 33.171875 179.226563 33.171875 Z M 176.003906 26.125 C 176.027344 26.09375 176.050781 26.058594 176.074219 26.023438 C 176.089844 26.050781 176.109375 26.074219 176.121094 26.109375 C 176.078125 26.109375 176.046875 26.121094 176.003906 26.125 M 174.660156 23.671875 C 174.652344 23.660156 174.644531 23.65625 174.636719 23.644531 C 174.636719 23.644531 174.636719 23.644531 174.636719 23.640625 C 174.636719 23.644531 174.636719 23.644531 174.636719 23.644531 L 174.667969 23.644531 C 174.664063 23.652344 174.660156 23.664063 174.660156 23.671875 M 174.667969 34.863281 C 174.660156 34.863281 174.652344 34.863281 174.644531 34.863281 C 174.644531 34.859375 174.644531 34.859375 174.644531 34.859375 C 174.652344 34.847656 174.65625 34.835938 174.667969 34.820313 C 174.667969 34.835938 174.667969 34.851563 174.667969 34.863281 M 174.046875 33.574219 C 174.050781 33.558594 174.050781 33.539063 174.054688 33.523438 C 174.09375 33.527344 174.128906 33.527344 174.171875 33.53125 C 174.125 33.542969 174.089844 33.558594 174.046875 33.574219 M 170.160156 26.742188 C 170.15625 26.738281 170.15625 26.734375 170.15625 26.726563 L 170.15625 26.722656 L 170.15625 26.726563 C 170.160156 26.734375 170.164063 26.738281 170.167969 26.746094 C 170.164063 26.746094 170.160156 26.742188 170.160156 26.742188 M 169.132813 28.007813 C 169.167969 27.960938 169.207031 27.925781 169.246094 27.886719 C 169.269531 27.9375 169.308594 27.992188 169.355469 28.046875 C 169.285156 28.03125 169.210938 28.019531 169.132813 28.007813 M 167.078125 35.992188 C 167.078125 35.988281 167.082031 35.988281 167.082031 35.988281 L 167.085938 35.992188 Z M 163.414063 37.65625 C 163.402344 37.660156 163.390625 37.660156 163.378906 37.660156 C 163.386719 37.648438 163.390625 37.640625 163.394531 37.625 C 163.402344 37.636719 163.410156 37.640625 163.417969 37.652344 C 163.417969 37.652344 163.414063 37.65625 163.414063 37.65625 M 159.484375 32.261719 C 159.480469 32.253906 159.476563 32.25 159.472656 32.246094 C 159.480469 32.246094 159.492188 32.25 159.503906 32.25 C 159.496094 32.253906 159.492188 32.257813 159.484375 32.261719 M 147.96875 30.40625 C 147.980469 30.394531 147.992188 30.382813 148.007813 30.371094 C 148.019531 30.386719 148.039063 30.402344 148.054688 30.414063 C 148.027344 30.414063 148 30.410156 147.96875 30.40625 M 148.003906 27.238281 C 148.011719 27.242188 148.015625 27.25 148.023438 27.253906 C 148.015625 27.261719 148.007813 27.273438 148.003906 27.28125 C 148.003906 27.269531 148.003906 27.253906 148.003906 27.238281 M 146.035156 28.417969 C 146.035156 28.414063 146.035156 28.414063 146.03125 28.414063 C 146.035156 28.410156 146.039063 28.410156 146.042969 28.40625 L 146.046875 28.40625 Z M 143.242188 24.203125 C 143.234375 24.203125 143.230469 24.203125 143.226563 24.203125 C 143.230469 24.195313 143.230469 24.191406 143.230469 24.183594 C 143.234375 24.191406 143.238281 24.195313 143.242188 24.203125 L 143.246094 24.203125 Z M 139.039063 25.605469 C 139.039063 25.605469 139.039063 25.609375 139.039063 25.609375 L 139.039063 25.605469 C 139.039063 25.605469 139.039063 25.605469 139.042969 25.605469 C 139.042969 25.605469 139.039063 25.605469 139.039063 25.605469 M 139.039063 25.605469 C 139.027344 25.601563 139.019531 25.59375 139.015625 25.585938 L 139.039063 25.578125 Z M 131.1875 30.085938 L 131.179688 30.085938 C 131.199219 30.074219 131.21875 30.0625 131.234375 30.046875 C 131.238281 30.050781 131.242188 30.050781 131.242188 30.054688 C 131.226563 30.066406 131.203125 30.074219 131.1875 30.085938 M 131.171875 30.109375 L 131.1875 30.089844 C 131.191406 30.09375 131.195313 30.09375 131.199219 30.097656 C 131.191406 30.101563 131.179688 30.105469 131.171875 30.109375 M 129.253906 27.867188 C 129.246094 27.859375 129.238281 27.851563 129.230469 27.84375 C 129.238281 27.851563 129.25 27.855469 129.261719 27.859375 C 129.257813 27.863281 129.253906 27.863281 129.253906 27.867188 M 127.554688 44.074219 C 127.558594 44.082031 127.5625 44.089844 127.566406 44.097656 C 127.5625 44.101563 127.554688 44.101563 127.550781 44.105469 C 127.550781 44.09375 127.550781 44.085938 127.554688 44.074219 M 128.074219 53.042969 L 128.105469 53.074219 C 128.105469 53.074219 128.105469 53.074219 128.105469 53.078125 L 128.105469 53.074219 C 128.09375 53.082031 128.074219 53.082031 128.058594 53.089844 C 128.066406 53.070313 128.066406 53.058594 128.074219 53.042969 M 129.632813 50.277344 C 129.601563 50.292969 129.566406 50.3125 129.535156 50.328125 C 129.523438 50.308594 129.515625 50.289063 129.507813 50.273438 C 129.546875 50.269531 129.589844 50.273438 129.632813 50.277344 M 132.917969 53.277344 C 132.925781 53.308594 132.933594 53.335938 132.949219 53.359375 L 132.777344 53.359375 C 132.832031 53.335938 132.871094 53.304688 132.917969 53.277344 M 134.550781 56.15625 Z M 155.242188 68.839844 C 155.242188 68.898438 155.238281 68.957031 155.234375 69.019531 C 155.1875 69.003906 155.136719 68.988281 155.085938 68.96875 C 155.136719 68.925781 155.1875 68.882813 155.242188 68.839844 M 122.5 24.480469 L 122.488281 24.492188 C 122.492188 24.488281 122.496094 24.484375 122.5 24.480469 C 122.527344 24.449219 122.558594 24.433594 122.585938 24.410156 C 122.644531 24.433594 122.699219 24.457031 122.746094 24.480469 Z M 122.503906 54.269531 C 122.507813 54.246094 122.507813 54.226563 122.511719 54.207031 C 122.535156 54.230469 122.558594 54.25 122.582031 54.273438 C 122.554688 54.269531 122.523438 54.265625 122.503906 54.269531 M 122.222656 26.171875 C 122.222656 26.171875 122.21875 26.171875 122.21875 26.171875 C 122.21875 26.171875 122.222656 26.167969 122.222656 26.167969 Z M 114.355469 47.761719 C 114.347656 47.753906 114.339844 47.753906 114.332031 47.746094 C 114.34375 47.746094 114.355469 47.75 114.367188 47.746094 C 114.363281 47.75 114.359375 47.753906 114.355469 47.761719 M 100.074219 53.917969 C 100.074219 53.898438 100.085938 53.878906 100.097656 53.859375 C 100.105469 53.875 100.109375 53.894531 100.117188 53.90625 C 100.101563 53.910156 100.085938 53.914063 100.074219 53.917969 M 96.769531 41.019531 C 96.761719 41.03125 96.761719 41.042969 96.757813 41.058594 C 96.742188 41.042969 96.726563 41.03125 96.710938 41.019531 Z M 98.394531 21.683594 Z M 99.085938 20.859375 C 99.097656 20.890625 99.109375 20.917969 99.117188 20.949219 C 99.09375 20.929688 99.066406 20.917969 99.042969 20.902344 C 99.054688 20.890625 99.074219 20.878906 99.085938 20.859375 M 102.015625 44.710938 C 102.023438 44.726563 102.03125 44.738281 102.042969 44.753906 C 102.03125 44.757813 102.019531 44.761719 102.007813 44.78125 C 101.949219 44.902344 101.957031 44.765625 102.015625 44.710938 M 102.589844 45.78125 C 102.589844 45.78125 102.589844 45.78125 102.589844 45.777344 L 102.589844 45.785156 L 102.589844 45.78125 C 102.585938 45.785156 102.585938 45.789063 102.582031 45.796875 C 102.582031 45.789063 102.578125 45.785156 102.574219 45.78125 C 102.578125 45.78125 102.582031 45.78125 102.589844 45.78125 M 103.925781 51.425781 C 103.925781 51.433594 103.921875 51.4375 103.921875 51.445313 C 103.917969 51.46875 103.9375 51.484375 103.941406 51.503906 C 103.933594 51.476563 103.910156 51.457031 103.90625 51.429688 C 103.914063 51.429688 103.921875 51.429688 103.925781 51.425781 M 105.390625 41.296875 L 105.398438 41.304688 C 105.394531 41.304688 105.390625 41.304688 105.386719 41.300781 Z M 105.398438 41.308594 C 105.40625 41.308594 105.410156 41.304688 105.414063 41.304688 C 105.410156 41.308594 105.40625 41.3125 105.402344 41.316406 C 105.402344 41.3125 105.402344 41.308594 105.398438 41.308594 M 107.28125 43.824219 C 107.308594 43.828125 107.335938 43.828125 107.363281 43.828125 C 107.332031 43.847656 107.308594 43.867188 107.28125 43.886719 C 107.28125 43.863281 107.28125 43.847656 107.28125 43.824219 M 112.398438 20.796875 C 112.398438 20.8125 112.402344 20.824219 112.402344 20.839844 C 112.390625 20.835938 112.378906 20.828125 112.367188 20.824219 C 112.378906 20.816406 112.390625 20.808594 112.398438 20.796875 M 99.417969 73.152344 C 99.417969 73.152344 99.417969 73.152344 99.417969 73.148438 C 99.449219 73.160156 99.480469 73.167969 99.507813 73.183594 C 99.476563 73.167969 99.449219 73.160156 99.417969 73.152344 M 91.414063 43.070313 C 91.390625 43.042969 91.378906 43.015625 91.382813 42.984375 C 91.398438 42.984375 91.414063 42.984375 91.429688 42.984375 C 91.421875 43.011719 91.417969 43.042969 91.414063 43.070313 M 89.445313 41.808594 C 89.457031 41.789063 89.460938 41.769531 89.46875 41.75 C 89.507813 41.78125 89.539063 41.804688 89.578125 41.835938 C 89.523438 41.824219 89.492188 41.820313 89.445313 41.808594 M 62.820313 69.601563 C 62.808594 69.59375 62.800781 69.582031 62.792969 69.574219 C 62.8125 69.585938 62.832031 69.589844 62.855469 69.601563 C 62.84375 69.601563 62.832031 69.601563 62.820313 69.601563 M 57.777344 54.8125 C 57.796875 54.816406 57.808594 54.8125 57.824219 54.8125 C 57.808594 54.824219 57.796875 54.839844 57.78125 54.851563 C 57.777344 54.835938 57.777344 54.824219 57.777344 54.8125 M 57.519531 55.089844 L 57.519531 55.082031 L 57.523438 55.082031 C 57.519531 55.085938 57.519531 55.085938 57.519531 55.089844 M 47.023438 40.222656 C 47.023438 40.214844 47.023438 40.207031 47.023438 40.199219 C 47.03125 40.203125 47.039063 40.207031 47.046875 40.207031 C 47.039063 40.214844 47.03125 40.21875 47.023438 40.222656 M 41.773438 38.171875 L 41.777344 38.171875 C 41.773438 38.171875 41.773438 38.171875 41.773438 38.175781 C 41.773438 38.171875 41.773438 38.171875 41.773438 38.171875 M 36.652344 38.503906 C 36.667969 38.492188 36.683594 38.480469 36.703125 38.472656 C 36.707031 38.480469 36.710938 38.492188 36.71875 38.5 C 36.695313 38.503906 36.675781 38.503906 36.652344 38.503906 M 32.222656 29.816406 C 32.222656 29.8125 32.21875 29.8125 32.21875 29.808594 C 32.222656 29.8125 32.230469 29.808594 32.234375 29.8125 C 32.230469 29.8125 32.226563 29.816406 32.222656 29.816406 M 29.164063 33.195313 C 29.160156 33.195313 29.160156 33.191406 29.160156 33.191406 C 29.164063 33.1875 29.164063 33.179688 29.167969 33.175781 C 29.171875 33.175781 29.171875 33.175781 29.175781 33.179688 C 29.171875 33.183594 29.167969 33.191406 29.164063 33.195313 M 27.582031 27.175781 C 27.640625 27.121094 27.699219 27.066406 27.753906 27.007813 C 27.757813 27.050781 27.769531 27.089844 27.777344 27.132813 C 27.710938 27.148438 27.644531 27.164063 27.582031 27.175781 M 27.1875 32.34375 L 27.1875 32.332031 C 27.191406 32.335938 27.195313 32.339844 27.199219 32.34375 C 27.195313 32.34375 27.191406 32.34375 27.1875 32.34375 M 23.195313 26.964844 C 23.21875 26.960938 23.238281 26.960938 23.257813 26.960938 C 23.242188 26.96875 23.230469 26.980469 23.214844 26.988281 C 23.207031 26.980469 23.203125 26.972656 23.195313 26.964844 M 21.511719 26.816406 C 21.511719 26.808594 21.507813 26.796875 21.507813 26.785156 C 21.527344 26.789063 21.546875 26.789063 21.566406 26.789063 C 21.546875 26.796875 21.527344 26.808594 21.511719 26.816406 M 16.8125 27.699219 C 16.828125 27.691406 16.839844 27.6875 16.855469 27.679688 C 16.859375 27.695313 16.859375 27.710938 16.867188 27.726563 C 16.847656 27.71875 16.832031 27.707031 16.8125 27.699219 M 12.554688 30.292969 L 12.550781 30.285156 C 12.558594 30.285156 12.5625 30.289063 12.566406 30.289063 C 12.5625 30.292969 12.558594 30.292969 12.554688 30.292969 M 10.046875 31.375 C 10.039063 31.371094 10.03125 31.371094 10.023438 31.367188 C 10.035156 31.367188 10.042969 31.367188 10.050781 31.367188 C 10.046875 31.371094 10.046875 31.375 10.046875 31.375 M 4.480469 31.765625 C 4.503906 31.765625 4.523438 31.761719 4.546875 31.761719 C 4.542969 31.78125 4.535156 31.804688 4.527344 31.820313 C 4.511719 31.800781 4.496094 31.785156 4.480469 31.765625 M 21.300781 18.3125 L 21.300781 18.316406 C 21.296875 18.316406 21.292969 18.3125 21.289063 18.3125 C 21.292969 18.3125 21.296875 18.3125 21.300781 18.3125 M 22.394531 8.417969 C 22.398438 8.433594 22.398438 8.449219 22.402344 8.460938 C 22.378906 8.460938 22.367188 8.472656 22.34375 8.472656 C 22.359375 8.453125 22.378906 8.4375 22.394531 8.417969 M 28.960938 10.707031 C 28.949219 10.722656 28.9375 10.742188 28.917969 10.757813 L 28.832031 10.824219 C 28.832031 10.796875 28.832031 10.773438 28.828125 10.746094 L 28.917969 10.757813 C 28.914063 10.734375 28.910156 10.707031 28.90625 10.683594 C 28.921875 10.6875 28.945313 10.699219 28.960938 10.707031 M 28.609375 18.605469 C 28.605469 18.605469 28.601563 18.609375 28.597656 18.609375 C 28.597656 18.605469 28.597656 18.597656 28.597656 18.59375 C 28.601563 18.59375 28.605469 18.601563 28.609375 18.605469 M 30.242188 11.550781 L 30.269531 11.585938 C 30.269531 11.589844 30.269531 11.59375 30.269531 11.59375 C 30.269531 11.597656 30.269531 11.605469 30.265625 11.609375 C 30.257813 11.589844 30.25 11.570313 30.242188 11.550781 M 30.277344 20.273438 C 30.261719 20.269531 30.246094 20.265625 30.226563 20.257813 C 30.226563 20.246094 30.222656 20.234375 30.222656 20.222656 C 30.242188 20.238281 30.257813 20.253906 30.277344 20.273438 M 32.507813 8.503906 C 32.5 8.5 32.492188 8.503906 32.480469 8.5 C 32.480469 8.496094 32.484375 8.488281 32.484375 8.484375 C 32.492188 8.488281 32.5 8.496094 32.507813 8.503906 M 32.554688 8.777344 C 32.554688 8.78125 32.550781 8.785156 32.550781 8.789063 C 32.542969 8.785156 32.539063 8.78125 32.527344 8.777344 Z M 36.679688 24.195313 C 36.699219 24.191406 36.71875 24.179688 36.738281 24.171875 C 36.730469 24.179688 36.730469 24.1875 36.722656 24.195313 Z M 36.398438 24.152344 C 36.410156 24.148438 36.425781 24.136719 36.4375 24.125 C 36.441406 24.152344 36.441406 24.175781 36.445313 24.203125 C 36.429688 24.1875 36.414063 24.167969 36.398438 24.152344 M 35.65625 17.339844 L 35.664063 17.472656 L 35.597656 17.472656 C 35.621094 17.429688 35.636719 17.382813 35.65625 17.339844 M 39.253906 30.371094 L 39.253906 30.371094 M 40.054688 27.355469 L 40.054688 27.359375 C 40.042969 27.390625 40.03125 27.417969 40.007813 27.445313 C 40.023438 27.414063 40.039063 27.386719 40.054688 27.355469 M 42.0625 35.683594 C 42.0625 35.683594 42.054688 35.6875 42.050781 35.691406 C 42.050781 35.6875 42.050781 35.683594 42.050781 35.679688 C 42.054688 35.679688 42.058594 35.683594 42.0625 35.683594 M 42.0625 35.726563 C 42.058594 35.714844 42.054688 35.703125 42.050781 35.691406 C 42.058594 35.695313 42.066406 35.695313 42.074219 35.699219 C 42.066406 35.707031 42.0625 35.71875 42.0625 35.726563 M 44.015625 26.738281 C 44.058594 26.792969 44.097656 26.84375 44.140625 26.894531 C 44.101563 26.898438 44.058594 26.902344 44.015625 26.910156 C 44.011719 26.855469 44.007813 26.804688 44.007813 26.746094 C 44.011719 26.746094 44.015625 26.742188 44.015625 26.738281 M 47.96875 44.417969 C 47.960938 44.410156 47.949219 44.40625 47.941406 44.398438 C 47.953125 44.398438 47.964844 44.398438 47.976563 44.402344 C 47.972656 44.40625 47.972656 44.414063 47.96875 44.417969 M 50.671875 46.167969 C 50.769531 46.117188 50.796875 46.28125 50.636719 46.230469 C 50.628906 46.21875 50.617188 46.207031 50.609375 46.195313 C 50.628906 46.1875 50.648438 46.183594 50.671875 46.167969 M 51 19.164063 Z M 51.046875 35.652344 C 51.054688 35.664063 51.066406 35.679688 51.078125 35.691406 C 51.0625 35.691406 51.046875 35.691406 51.027344 35.695313 C 51.027344 35.691406 51.023438 35.691406 51.023438 35.6875 C 51.03125 35.675781 51.039063 35.664063 51.046875 35.652344 M 51.578125 26.414063 L 51.578125 26.445313 C 51.5625 26.441406 51.554688 26.441406 51.542969 26.433594 C 51.554688 26.429688 51.566406 26.417969 51.578125 26.414063 M 52.976563 34.292969 C 52.953125 34.316406 52.929688 34.332031 52.90625 34.351563 C 52.902344 34.332031 52.894531 34.316406 52.890625 34.292969 Z M 53.136719 35.367188 C 53.113281 35.242188 53.089844 35.117188 53.066406 34.992188 C 53.1875 35.101563 53.191406 35.230469 53.136719 35.367188 M 53.3125 22.464844 C 53.292969 22.484375 53.28125 22.503906 53.261719 22.523438 C 53.25 22.496094 53.242188 22.480469 53.230469 22.457031 C 53.257813 22.460938 53.285156 22.460938 53.3125 22.464844 M 54.355469 18.871094 C 54.359375 18.875 54.363281 18.878906 54.371094 18.882813 L 54.34375 18.882813 C 54.347656 18.878906 54.351563 18.875 54.355469 18.871094 M 54.4375 51.21875 C 54.414063 51.1875 54.390625 51.152344 54.367188 51.121094 L 54.367188 51.117188 C 54.367188 51.117188 54.367188 51.121094 54.371094 51.121094 C 54.398438 51.121094 54.429688 51.121094 54.460938 51.117188 C 54.453125 51.152344 54.441406 51.1875 54.4375 51.21875 M 55.480469 53.902344 C 55.484375 53.90625 55.492188 53.914063 55.5 53.921875 C 55.472656 53.925781 55.449219 53.925781 55.425781 53.929688 C 55.441406 53.917969 55.464844 53.910156 55.480469 53.902344 M 56.347656 52.222656 C 56.34375 52.226563 56.347656 52.230469 56.34375 52.230469 C 56.34375 52.230469 56.339844 52.230469 56.339844 52.226563 C 56.339844 52.226563 56.34375 52.222656 56.347656 52.222656 M 56.371094 52.234375 C 56.363281 52.238281 56.359375 52.242188 56.355469 52.246094 C 56.351563 52.242188 56.347656 52.238281 56.347656 52.234375 C 56.355469 52.234375 56.359375 52.234375 56.371094 52.234375 M 59.605469 21.945313 C 59.605469 22.003906 59.628906 22.050781 59.640625 22.105469 C 59.621094 22.105469 59.601563 22.109375 59.585938 22.117188 C 59.582031 22.0625 59.582031 22.003906 59.605469 21.945313 M 60.554688 21.09375 C 60.5625 21.101563 60.570313 21.109375 60.578125 21.117188 C 60.566406 21.113281 60.554688 21.113281 60.539063 21.109375 C 60.542969 21.101563 60.550781 21.101563 60.554688 21.09375 M 182.929688 28.054688 C 182.878906 28.058594 182.828125 28.070313 182.777344 28.078125 C 182.769531 28.003906 182.765625 27.925781 182.761719 27.851563 C 182.679688 27.851563 182.601563 27.839844 182.519531 27.820313 C 182.355469 27.667969 182.191406 27.519531 182.027344 27.367188 C 181.851563 27.132813 181.660156 26.90625 181.484375 26.671875 C 181.390625 26.585938 181.285156 26.511719 181.171875 26.457031 C 181.164063 26.453125 181.15625 26.453125 181.148438 26.449219 C 181.027344 26.269531 180.90625 26.085938 180.785156 25.90625 C 180.699219 25.894531 180.617188 25.886719 180.535156 25.878906 C 180.421875 25.695313 180.308594 25.515625 180.195313 25.335938 C 180.125 25.066406 179.980469 24.917969 179.679688 25.011719 L 179.691406 25.082031 C 179.605469 25.058594 179.519531 25.042969 179.433594 25.035156 C 179.132813 24.683594 178.582031 24.535156 178.539063 23.964844 C 178.359375 23.953125 178.179688 23.941406 178 23.925781 C 177.808594 23.746094 177.621094 23.570313 177.433594 23.390625 C 177.261719 23.375 177.085938 23.359375 176.914063 23.347656 C 176.644531 22.714844 175.898438 22.875 175.480469 22.488281 C 174.777344 22.519531 174.269531 21.84375 173.546875 21.945313 C 173.539063 21.949219 173.53125 21.949219 173.523438 21.949219 C 173.542969 21.929688 173.566406 21.914063 173.582031 21.886719 C 173.234375 21.0625 172.457031 21.335938 171.835938 21.199219 C 171.808594 21.207031 171.78125 21.210938 171.75 21.210938 C 171.480469 21.230469 171.210938 21.242188 170.941406 21.246094 C 170.289063 21.253906 169.632813 21.226563 168.980469 21.203125 C 168.980469 21.203125 168.980469 21.203125 168.980469 21.199219 C 168.957031 21.199219 168.929688 21.199219 168.90625 21.199219 C 168.804688 21.195313 168.699219 21.191406 168.597656 21.1875 L 168.597656 21.191406 C 168.019531 21.171875 167.445313 21.160156 166.867188 21.1875 C 166.074219 21.226563 165.285156 21.308594 164.492188 21.394531 C 164.484375 21.394531 164.480469 21.394531 164.472656 21.394531 C 164.351563 21.40625 164.230469 21.421875 164.105469 21.4375 C 164.058594 21.441406 164.007813 21.445313 163.960938 21.449219 L 163.960938 21.453125 C 163.59375 21.496094 163.226563 21.535156 162.855469 21.578125 C 162.679688 21.601563 162.507813 21.617188 162.332031 21.636719 C 159.824219 21.917969 157.320313 22.148438 154.804688 22.3125 C 154.761719 22.3125 154.71875 22.316406 154.675781 22.320313 C 154.601563 22.324219 154.523438 22.328125 154.449219 22.332031 C 151.785156 22.5 149.121094 22.628906 146.457031 22.789063 C 146.355469 22.796875 146.253906 22.804688 146.148438 22.808594 C 145.136719 22.871094 144.121094 22.921875 143.105469 22.964844 C 142.777344 22.976563 142.449219 22.988281 142.121094 23 C 141.472656 23.015625 140.820313 23.023438 140.167969 23.015625 C 140.144531 23.019531 140.117188 23.023438 140.085938 23.023438 C 140.054688 23.023438 140.023438 23.019531 139.992188 23.011719 C 139.964844 23.007813 139.9375 23.007813 139.910156 23.007813 C 139.554688 23.054688 139.199219 23.097656 138.84375 23.125 C 138.417969 23.160156 137.996094 23.175781 137.570313 23.144531 C 137.476563 23.15625 137.386719 23.167969 137.292969 23.179688 C 137.1875 23.214844 137.082031 23.257813 136.976563 23.3125 C 136.824219 23.328125 136.671875 23.339844 136.515625 23.355469 C 136.140625 23.363281 135.765625 23.371094 135.390625 23.378906 C 135.113281 23.386719 134.835938 23.394531 134.554688 23.402344 C 133.304688 23.492188 132.070313 23.417969 130.851563 23.261719 C 130.183594 23.207031 129.519531 23.136719 128.851563 23.042969 C 127.75 22.894531 126.652344 22.699219 125.566406 22.457031 C 125.46875 22.4375 125.375 22.414063 125.277344 22.390625 C 124.796875 22.28125 124.316406 22.167969 123.839844 22.035156 C 123.683594 21.988281 123.523438 21.9375 123.367188 21.886719 C 123.3125 21.867188 123.261719 21.851563 123.207031 21.832031 C 123.007813 21.761719 122.808594 21.6875 122.613281 21.601563 C 122.476563 21.542969 122.34375 21.480469 122.207031 21.414063 C 122.003906 21.316406 121.804688 21.210938 121.601563 21.105469 C 121.074219 20.914063 120.546875 20.71875 120.019531 20.527344 C 119.453125 20.3125 118.886719 20.09375 118.320313 19.878906 C 118.132813 19.722656 117.945313 19.5625 117.753906 19.40625 C 117.652344 19.347656 117.546875 19.285156 117.441406 19.226563 C 117.171875 19.089844 116.902344 18.953125 116.632813 18.820313 C 116.527344 18.753906 116.429688 18.691406 116.328125 18.625 C 113.796875 17.71875 111.191406 17.21875 108.5 17.246094 C 106.058594 17.191406 103.617188 17.011719 101.195313 17.46875 C 100.242188 17.480469 99.273438 17.386719 98.347656 17.71875 C 96.894531 17.824219 95.480469 18.101563 94.09375 18.542969 C 94.023438 18.523438 93.964844 18.535156 93.910156 18.578125 C 92.742188 18.511719 91.636719 18.804688 90.539063 19.152344 C 90.355469 19.164063 90.167969 19.179688 89.976563 19.195313 C 89.492188 19.15625 89.023438 19.207031 88.582031 19.429688 C 87.542969 19.597656 86.507813 19.765625 85.464844 19.933594 C 84.558594 20.039063 83.648438 20.144531 82.742188 20.25 C 82.71875 20.238281 82.699219 20.230469 82.675781 20.21875 C 82.65625 20.222656 82.632813 20.222656 82.609375 20.226563 C 81.359375 20.410156 80.070313 20.328125 78.800781 20.34375 C 78.800781 20.34375 78.800781 20.34375 78.800781 20.339844 C 78.605469 20.34375 78.410156 20.347656 78.214844 20.355469 L 78.210938 20.355469 C 78.203125 20.355469 78.199219 20.355469 78.191406 20.355469 C 78.078125 20.359375 77.96875 20.363281 77.855469 20.371094 C 77.015625 20.425781 76.167969 20.46875 75.328125 20.472656 C 74.703125 20.472656 74.078125 20.453125 73.457031 20.402344 C 73.132813 20.371094 72.808594 20.335938 72.484375 20.289063 C 72.429688 20.285156 72.375 20.285156 72.320313 20.285156 C 71.761719 20.273438 71.203125 20.265625 70.644531 20.253906 C 69.628906 20.007813 68.59375 20.023438 67.558594 20.035156 C 67.371094 20.027344 67.1875 20.027344 67 20.023438 C 66.816406 20.003906 66.632813 19.988281 66.449219 19.96875 C 66.441406 19.964844 66.4375 19.964844 66.429688 19.960938 C 65.605469 19.910156 64.789063 19.816406 63.972656 19.695313 C 63.363281 19.605469 62.757813 19.496094 62.152344 19.386719 C 61.851563 19.332031 61.554688 19.277344 61.253906 19.21875 C 60.789063 19.128906 60.320313 19.035156 59.855469 18.945313 C 58.769531 18.738281 57.738281 18.386719 56.714844 18.007813 C 56.6875 18.003906 56.664063 17.996094 56.636719 17.992188 C 56.617188 17.980469 56.59375 17.96875 56.574219 17.957031 C 56.148438 17.796875 55.726563 17.636719 55.300781 17.484375 C 55.183594 17.46875 55.0625 17.457031 54.941406 17.457031 C 54.835938 17.378906 54.722656 17.304688 54.605469 17.238281 C 54.015625 17.035156 53.417969 16.851563 52.804688 16.707031 C 52.804688 16.707031 52.804688 16.707031 52.800781 16.703125 C 52.777344 16.699219 52.75 16.695313 52.726563 16.6875 C 50.847656 16.257813 48.917969 16.019531 47.046875 15.558594 C 46.855469 15.511719 46.664063 15.460938 46.472656 15.40625 C 46.070313 15.296875 45.675781 15.175781 45.28125 15.035156 C 44.804688 14.867188 44.335938 14.679688 43.867188 14.484375 C 43.585938 14.367188 43.308594 14.253906 43.03125 14.140625 C 43.027344 14.140625 43.027344 14.140625 43.027344 14.140625 C 42.710938 14.007813 42.394531 13.882813 42.078125 13.757813 C 42.078125 13.757813 42.078125 13.753906 42.078125 13.753906 C 41.984375 13.714844 41.890625 13.679688 41.796875 13.644531 L 41.792969 13.644531 C 41.789063 13.640625 41.785156 13.640625 41.78125 13.636719 C 41.246094 13.433594 40.703125 13.25 40.15625 13.078125 C 40.15625 13.074219 40.15625 13.074219 40.15625 13.074219 C 40.105469 13.058594 40.054688 13.042969 40.003906 13.027344 C 39.96875 13.015625 39.933594 13.003906 39.898438 12.992188 L 39.898438 12.996094 C 39.464844 12.863281 39.03125 12.746094 38.589844 12.640625 L 38.589844 12.632813 C 38.472656 12.605469 38.351563 12.578125 38.234375 12.550781 C 38.214844 12.546875 38.195313 12.539063 38.175781 12.535156 C 38.011719 12.5 37.917969 12.394531 37.886719 12.269531 L 37.601563 12.070313 C 37.617188 11.921875 37.628906 11.773438 37.640625 11.621094 C 37.707031 11.515625 37.773438 11.410156 37.839844 11.304688 C 38.128906 11.003906 38.160156 10.621094 38.171875 10.230469 C 38.605469 9.398438 38.300781 8.503906 38.382813 7.640625 C 38.390625 7.632813 38.398438 7.625 38.40625 7.613281 C 38.402344 7.59375 38.398438 7.574219 38.394531 7.554688 C 38.394531 7.550781 38.394531 7.546875 38.394531 7.542969 C 38.386719 7.445313 38.371094 7.347656 38.355469 7.253906 C 38.351563 7.246094 38.34375 7.238281 38.339844 7.234375 C 38.269531 6.816406 38.175781 6.402344 38.054688 5.996094 C 38.054688 5.996094 38.058594 5.992188 38.058594 5.988281 C 38.046875 5.953125 38.035156 5.917969 38.019531 5.878906 C 38.015625 5.867188 38.011719 5.851563 38.007813 5.835938 C 38.007813 5.835938 38.007813 5.835938 38.003906 5.835938 C 37.988281 5.792969 37.972656 5.75 37.957031 5.707031 C 37.960938 5.703125 37.960938 5.699219 37.960938 5.699219 C 37.949219 5.664063 37.933594 5.628906 37.917969 5.597656 C 37.835938 5.363281 37.742188 5.132813 37.636719 4.910156 C 37.617188 4.871094 37.601563 4.828125 37.582031 4.789063 C 37.578125 4.777344 37.574219 4.765625 37.566406 4.753906 L 37.570313 4.765625 C 37.453125 4.523438 37.320313 4.289063 37.179688 4.0625 L 37.183594 4.058594 C 37.175781 4.046875 37.164063 4.03125 37.15625 4.015625 C 37.148438 4.007813 37.144531 4 37.140625 3.988281 C 37.140625 3.988281 37.140625 3.992188 37.140625 3.988281 C 37.097656 3.921875 37.054688 3.859375 37.011719 3.792969 C 37.011719 3.789063 37.007813 3.789063 37.007813 3.785156 C 36.992188 3.765625 36.980469 3.746094 36.96875 3.726563 C 36.964844 3.726563 36.964844 3.730469 36.960938 3.730469 C 36.824219 3.527344 36.679688 3.332031 36.519531 3.152344 C 36.496094 3.121094 36.472656 3.09375 36.449219 3.066406 C 36.4375 3.050781 36.425781 3.035156 36.410156 3.019531 C 35.960938 2.664063 35.496094 2.933594 35.023438 3.101563 C 33.394531 3.671875 32.171875 4.832031 30.9375 6 C 30.867188 5.886719 30.804688 5.769531 30.75 5.652344 C 30.699219 5.625 30.648438 5.585938 30.609375 5.53125 C 30.1875 4.980469 29.890625 4.351563 29.617188 3.707031 C 29.421875 3.253906 29.238281 2.796875 29.027344 2.351563 C 28.992188 2.316406 28.957031 2.285156 28.910156 2.257813 C 28.585938 1.53125 28.136719 0.890625 27.5625 0.339844 C 26.660156 -0.195313 25.851563 -0.0976563 25.144531 0.628906 C 25.144531 0.671875 25.132813 0.714844 25.109375 0.761719 C 24.859375 1.363281 24.546875 1.933594 24.226563 2.496094 C 23.875 3.117188 23.515625 3.734375 23.1875 4.367188 C 23.183594 4.375 23.179688 4.382813 23.171875 4.390625 C 23.15625 4.414063 23.144531 4.445313 23.132813 4.472656 C 23.121094 4.492188 23.105469 4.515625 23.097656 4.535156 L 23.101563 4.535156 C 23.027344 4.683594 22.953125 4.832031 22.882813 4.984375 C 22.847656 5.058594 22.804688 5.113281 22.75 5.148438 C 22.738281 5.179688 22.726563 5.207031 22.714844 5.234375 C 22.730469 5.320313 22.71875 5.410156 22.671875 5.503906 C 22.585938 5.679688 22.511719 5.863281 22.441406 6.042969 C 22.390625 6.28125 22.367188 6.527344 22.394531 6.785156 C 22.332031 7.0625 22.183594 7.320313 22.042969 7.574219 C 21.96875 7.960938 21.914063 8.355469 21.855469 8.746094 C 21.78125 9.257813 21.703125 9.765625 21.585938 10.261719 C 21.589844 10.332031 21.597656 10.402344 21.609375 10.472656 C 21.5 10.628906 21.386719 10.789063 21.273438 10.949219 C 20.820313 11.179688 20.367188 11.410156 19.914063 11.640625 C 19.902344 11.640625 19.894531 11.640625 19.886719 11.636719 C 19.808594 11.679688 19.730469 11.722656 19.648438 11.761719 C 19.632813 11.785156 19.621094 11.816406 19.605469 11.84375 C 18.527344 12.167969 17.65625 12.832031 16.816406 13.554688 C 15.691406 14.28125 14.574219 15.011719 13.949219 16.265625 C 13.488281 16.648438 13.257813 17.164063 13.082031 17.714844 L 13.078125 17.714844 C 12.925781 18.011719 12.769531 18.308594 12.613281 18.601563 L 12.363281 19.039063 C 12.347656 19.078125 12.335938 19.121094 12.316406 19.164063 C 12.25 19.324219 12.167969 19.480469 12.089844 19.636719 C 12.058594 19.71875 12.035156 19.804688 12.011719 19.894531 C 12.011719 19.910156 12.011719 19.925781 12.011719 19.945313 C 11.832031 20.605469 11.648438 21.261719 11.464844 21.921875 C 11.382813 22.078125 11.296875 22.234375 11.210938 22.394531 C 11.203125 22.417969 11.191406 22.441406 11.179688 22.460938 C 11.175781 22.46875 11.175781 22.472656 11.171875 22.476563 C 10.941406 22.863281 10.664063 23.210938 10.367188 23.539063 C 10.140625 23.785156 9.898438 24.019531 9.648438 24.238281 C 9.378906 24.480469 9.101563 24.710938 8.8125 24.9375 C 8.554688 25.136719 8.296875 25.332031 8.039063 25.527344 L 8.039063 25.53125 C 7.507813 25.929688 6.980469 26.328125 6.496094 26.765625 C 6.296875 26.941406 6.101563 27.121094 5.90625 27.304688 C 5.789063 27.410156 5.671875 27.515625 5.558594 27.621094 C 4.933594 28.191406 4.300781 28.75 3.625 29.246094 C 3.175781 29.574219 2.707031 29.878906 2.207031 30.132813 C 2.03125 30.222656 1.847656 30.308594 1.664063 30.386719 C 1.636719 30.398438 1.605469 30.410156 1.574219 30.421875 C 1.207031 30.632813 0.800781 30.773438 0.414063 30.949219 C 0.410156 30.949219 0.40625 30.949219 0.402344 30.949219 C 0.382813 30.960938 0.359375 30.972656 0.339844 30.984375 C 0.320313 30.992188 0.296875 31 0.277344 31.011719 C 0.277344 31.011719 0.277344 31.015625 0.277344 31.015625 C 0.210938 31.046875 0.140625 31.082031 0.0742188 31.117188 C 0.0429688 31.195313 0.0195313 31.273438 0 31.351563 C 0.171875 31.949219 0.542969 32.480469 1 32.914063 C 1.132813 32.921875 1.269531 32.917969 1.40625 32.90625 L 1.351563 32.820313 C 1.382813 32.808594 1.417969 32.789063 1.453125 32.777344 C 1.4375 32.820313 1.421875 32.863281 1.40625 32.90625 C 2.152344 33.460938 2.898438 34.015625 3.644531 34.570313 C 3.917969 34.671875 4.191406 34.773438 4.46875 34.875 C 4.707031 35.230469 5.210938 35.015625 5.449219 35.289063 C 5.542969 35.402344 5.640625 35.503906 5.742188 35.597656 C 5.757813 35.609375 5.773438 35.621094 5.789063 35.632813 C 6.347656 36.101563 7.019531 36.40625 7.722656 36.542969 C 8.5625 36.648438 9.460938 36.484375 10.367188 36.25 C 10.425781 36.25 10.484375 36.25 10.539063 36.242188 C 10.660156 36.191406 10.777344 36.140625 10.894531 36.078125 C 10.914063 36.058594 10.933594 36.035156 10.953125 36.007813 C 10.988281 36.003906 11.023438 36 11.058594 35.996094 C 11.390625 35.820313 11.710938 35.625 12.035156 35.414063 C 12.21875 35.300781 12.402344 35.195313 12.589844 35.089844 C 12.796875 34.972656 13.011719 34.863281 13.226563 34.757813 C 13.566406 34.59375 13.910156 34.441406 14.257813 34.304688 C 14.273438 34.292969 14.292969 34.289063 14.3125 34.28125 C 15.246094 33.910156 16.300781 33.582031 17.371094 33.414063 C 17.398438 33.410156 17.425781 33.40625 17.453125 33.40625 C 17.488281 33.386719 17.527344 33.371094 17.574219 33.367188 C 18.496094 33.203125 19.417969 33.230469 20.332031 33.335938 C 20.578125 33.363281 20.820313 33.398438 21.0625 33.4375 C 21.160156 33.453125 21.257813 33.464844 21.355469 33.484375 C 21.601563 33.527344 21.84375 33.570313 22.085938 33.617188 C 22.152344 33.632813 22.214844 33.648438 22.28125 33.660156 C 22.492188 33.707031 22.703125 33.761719 22.910156 33.816406 C 23.871094 34.082031 24.761719 34.488281 25.523438 35.132813 C 25.6875 35.269531 25.851563 35.414063 26.003906 35.578125 C 26.042969 35.617188 26.078125 35.65625 26.117188 35.699219 C 26.199219 35.78125 26.277344 35.867188 26.355469 35.949219 L 26.566406 36.171875 C 26.9375 36.5625 27.300781 36.960938 27.648438 37.367188 C 27.996094 37.769531 28.324219 38.183594 28.625 38.621094 C 28.691406 38.726563 28.765625 38.824219 28.832031 38.929688 C 28.910156 39.054688 28.980469 39.183594 29.058594 39.308594 C 29.277344 39.679688 29.476563 40.058594 29.660156 40.441406 C 29.859375 40.859375 30.046875 41.28125 30.207031 41.71875 C 30.261719 41.679688 30.320313 41.621094 30.382813 41.546875 C 30.703125 41.164063 30.855469 40.695313 30.839844 40.1875 C 31.027344 40 31.214844 39.816406 31.398438 39.628906 C 33.238281 39.835938 34.507813 41.257813 36.160156 41.863281 C 36.890625 42.527344 37.851563 42.777344 38.675781 43.273438 C 39.226563 43.828125 40 43.992188 40.644531 44.390625 C 40.765625 44.613281 40.972656 44.664063 41.207031 44.667969 C 41.636719 44.933594 42.050781 45.230469 42.5 45.449219 C 44.921875 46.621094 47.304688 47.851563 49.289063 49.714844 C 49.320313 49.804688 49.351563 49.894531 49.386719 49.984375 C 49.355469 50.191406 49.332031 50.402344 49.304688 50.613281 C 47.472656 50.730469 45.859375 51.542969 44.191406 52.191406 C 43.351563 52.261719 42.519531 52.378906 41.761719 52.78125 C 41.335938 52.683594 41 52.917969 40.640625 53.070313 C 40.304688 52.988281 40.019531 53.070313 39.800781 53.347656 C 38.613281 53.519531 37.441406 53.75 36.4375 54.46875 C 35.859375 54.613281 35.277344 54.746094 34.707031 54.910156 C 33.324219 55.308594 31.933594 55.695313 31.050781 56.976563 C 30.976563 57.070313 30.898438 57.160156 30.820313 57.253906 C 29.777344 58.207031 28.726563 59.15625 27.6875 60.117188 C 27.066406 60.695313 26.203125 61.0625 25.976563 62 C 25.070313 62.03125 24.4375 62.578125 23.808594 63.136719 C 23.113281 63.296875 22.574219 63.695313 22.117188 64.226563 C 21.152344 64.925781 20.035156 65.433594 19.292969 66.417969 C 18.679688 67.234375 18.546875 67.957031 19.5625 68.640625 C 20.265625 69.113281 21.019531 69.390625 21.808594 69.644531 C 22.675781 70.078125 23.53125 69.992188 24.378906 69.585938 C 24.996094 69.433594 25.617188 69.285156 26.050781 68.765625 C 26.789063 68.289063 27.570313 67.867188 28.015625 67.058594 C 28.417969 66.964844 28.519531 66.601563 28.6875 66.300781 C 28.984375 66.238281 29.089844 66.003906 29.1875 65.761719 C 29.5 65.503906 29.878906 65.308594 30.007813 64.878906 C 30.425781 64.445313 31.117188 64.367188 31.417969 63.789063 C 32.785156 62.933594 34.117188 62.03125 35.554688 61.289063 C 36.039063 61.039063 36.753906 60.890625 36.761719 60.101563 C 36.84375 60.109375 36.925781 60.097656 37.003906 60.066406 C 38.113281 60.273438 39.21875 60.507813 40.359375 60.371094 C 41.203125 60.449219 42.042969 60.527344 42.882813 60.601563 C 43.351563 60.609375 43.816406 60.617188 44.289063 60.625 C 45.195313 61.003906 46.15625 60.867188 47.09375 60.910156 C 48.066406 61.058594 49 60.914063 49.96875 60.726563 C 52.335938 60.265625 54.128906 58.59375 56.335938 57.816406 C 58.519531 57.054688 59.800781 55.421875 60.640625 53.363281 C 60.980469 53.253906 61.164063 53.542969 61.414063 53.667969 C 61.683594 55.242188 61.296875 56.824219 61.453125 58.402344 C 61.449219 59.804688 61.441406 61.210938 61.4375 62.613281 C 61.398438 64.292969 60.949219 65.863281 60.1875 67.351563 C 60.015625 67.390625 59.953125 67.488281 60.007813 67.65625 C 59.59375 68.378906 59.144531 69.082031 58.773438 69.820313 C 58.199219 70.957031 57.46875 71.484375 56.050781 71.367188 C 54.273438 71.226563 52.835938 72.09375 52.042969 73.796875 C 51.667969 74.199219 51.507813 74.671875 51.605469 75.21875 C 51.554688 75.820313 51.902344 76.015625 52.433594 76.023438 C 52.613281 76.023438 52.796875 76.027344 52.976563 76.027344 C 53.199219 76.050781 53.402344 76.042969 53.597656 76.015625 C 55.183594 75.988281 56.757813 75.832031 58.304688 75.464844 C 59.113281 75.507813 59.914063 75.488281 60.726563 75.65625 C 61.394531 75.792969 62.167969 75.804688 62.742188 75.21875 C 63.523438 74.15625 63.710938 72.847656 64.242188 71.683594 C 64.929688 70.929688 65.285156 70.007813 65.570313 69.050781 C 66.472656 67.789063 67.234375 66.46875 67.261719 64.851563 C 67.714844 63.582031 67.457031 62.210938 67.804688 60.929688 C 68.683594 57.820313 69.046875 54.644531 69.035156 51.417969 C 69.457031 51.425781 69.882813 51.4375 70.304688 51.445313 C 70.425781 51.488281 70.550781 51.507813 70.675781 51.519531 C 71.960938 51.765625 73.265625 51.648438 74.5625 51.648438 C 74.753906 51.648438 74.941406 51.648438 75.128906 51.644531 C 75.6875 51.652344 76.246094 51.65625 76.800781 51.660156 C 76.988281 51.660156 77.179688 51.660156 77.371094 51.65625 C 77.648438 51.652344 77.929688 51.652344 78.210938 51.648438 C 79.597656 51.742188 80.984375 51.644531 82.378906 51.875 C 83.207031 52.015625 84.136719 52.171875 84.960938 51.695313 C 85.234375 51.671875 85.511719 51.652344 85.785156 51.628906 C 86.285156 51.65625 86.792969 51.773438 87.234375 51.417969 C 88.078125 51.460938 88.898438 51.355469 89.703125 51.109375 C 90.679688 51.085938 91.628906 50.929688 92.519531 50.515625 C 92.992188 50.355469 93.527344 50.347656 93.898438 49.945313 C 94.179688 49.773438 94.464844 49.601563 94.746094 49.429688 C 94.875 49.371094 95.007813 49.3125 95.136719 49.253906 C 95.269531 49.414063 95.402344 49.574219 95.53125 49.738281 C 96.011719 50.5625 96.523438 51.367188 97.234375 52.023438 C 97.347656 52.1875 97.464844 52.351563 97.578125 52.511719 C 97.828125 53.003906 98.207031 53.378906 98.636719 53.714844 C 98.707031 53.792969 98.773438 53.875 98.84375 53.957031 C 99.066406 54.21875 99.292969 54.484375 99.515625 54.746094 C 100.070313 55.320313 100.625 55.894531 101.179688 56.46875 C 101.726563 57.230469 102.390625 57.871094 103.167969 58.398438 C 103.351563 58.691406 103.617188 58.878906 103.9375 58.988281 C 104.203125 59.277344 104.46875 59.5625 104.730469 59.847656 C 105.132813 60.5 105.535156 61.152344 105.933594 61.804688 C 106.023438 62.097656 106.109375 62.386719 106.199219 62.675781 C 106.230469 62.839844 106.257813 63.003906 106.289063 63.171875 C 106.476563 63.847656 106.34375 64.605469 106.523438 65.28125 L 106.511719 65.261719 L 106.769531 66.445313 L 106.769531 66.441406 C 106.753906 66.554688 106.785156 66.683594 106.820313 66.816406 C 106.84375 67.304688 106.84375 67.792969 106.511719 68.203125 L 106.507813 68.199219 C 106.5 68.203125 106.496094 68.203125 106.488281 68.207031 C 106.335938 68.433594 106.191406 68.660156 105.945313 68.8125 C 105.933594 68.820313 105.917969 68.824219 105.902344 68.828125 C 105.84375 68.890625 105.777344 68.945313 105.710938 69 C 105.441406 69.226563 105.152344 69.421875 104.84375 69.597656 C 104.753906 69.648438 104.660156 69.699219 104.566406 69.746094 C 104.335938 69.867188 104.097656 69.980469 103.859375 70.082031 C 103.464844 70.316406 103.050781 70.523438 102.632813 70.722656 L 102.5 70.785156 C 102.421875 70.824219 102.34375 70.835938 102.273438 70.828125 C 101.542969 71.191406 100.8125 71.554688 100.082031 71.917969 C 99.230469 72.609375 98.105469 72.25 97.179688 72.652344 C 96.929688 72.660156 96.683594 72.667969 96.433594 72.679688 C 94.980469 72.722656 93.441406 72.335938 92.195313 73.480469 C 91.464844 74.085938 91.058594 74.8125 91.351563 75.789063 C 92.765625 76.722656 94.328125 76.429688 95.867188 76.351563 C 96.890625 76.46875 97.910156 76.527344 98.933594 76.386719 C 100.066406 76.5 101.199219 76.582031 102.324219 76.316406 C 103 76.449219 103.640625 76.269531 104.28125 76.082031 C 105.566406 75.738281 106.371094 74.746094 107.265625 73.875 C 107.285156 73.847656 107.304688 73.824219 107.328125 73.796875 C 107.339844 73.789063 107.351563 73.78125 107.359375 73.769531 C 107.464844 73.675781 107.574219 73.597656 107.691406 73.523438 C 107.714844 73.511719 107.730469 73.503906 107.75 73.492188 C 107.910156 73.363281 108.0625 73.226563 108.238281 73.117188 C 108.398438 73.015625 108.5625 72.921875 108.726563 72.832031 C 108.753906 72.804688 108.777344 72.773438 108.800781 72.742188 L 108.800781 72.746094 C 108.914063 72.683594 109.023438 72.621094 109.140625 72.558594 C 109.398438 72.359375 109.65625 72.152344 109.910156 71.945313 C 109.921875 71.929688 109.933594 71.910156 109.949219 71.890625 L 109.980469 71.890625 C 110.148438 71.753906 110.316406 71.613281 110.488281 71.476563 C 110.65625 71.34375 110.820313 71.210938 110.988281 71.085938 C 110.996094 71.078125 111.007813 71.070313 111.019531 71.0625 C 111.0625 71.035156 111.105469 71.015625 111.148438 71.007813 C 111.269531 70.925781 111.390625 70.84375 111.511719 70.765625 C 111.519531 70.746094 111.523438 70.734375 111.53125 70.714844 L 111.550781 70.703125 C 112.148438 70.265625 112.75 69.828125 113.351563 69.390625 C 113.792969 69.351563 114.027344 68.972656 114.371094 68.773438 C 114.554688 68.671875 114.738281 68.570313 114.925781 68.46875 C 115.34375 68.265625 115.882813 68.230469 116.019531 67.652344 C 116.03125 67.464844 116.039063 67.277344 116.046875 67.09375 C 116.046875 66.8125 116.050781 66.53125 116.050781 66.25 C 116.203125 65.351563 115.675781 64.691406 115.253906 63.992188 C 115.308594 63.648438 115.105469 63.410156 114.914063 63.167969 C 114.886719 62.441406 114.023438 62.519531 113.789063 62 C 113.089844 60.40625 112.605469 58.765625 112.679688 57 C 112.941406 56.0625 113.203125 55.128906 113.46875 54.191406 L 114.253906 53.730469 C 114.304688 53.707031 114.351563 53.679688 114.394531 53.648438 C 115.050781 53.417969 115.699219 53.179688 116.046875 52.507813 C 116.234375 52.605469 116.425781 52.699219 116.613281 52.792969 C 117.054688 53.570313 117.695313 54.121094 118.488281 54.515625 C 118.628906 54.785156 118.855469 54.945313 119.140625 55.035156 C 119.707031 55.78125 120.488281 56.195313 121.363281 56.472656 C 122.988281 57.152344 124.617188 57.820313 126.425781 57.835938 C 126.703125 57.835938 126.984375 57.832031 127.265625 57.832031 C 128.21875 57.859375 129.160156 57.769531 130.082031 57.527344 C 130.855469 57.660156 131.558594 57.289063 132.304688 57.253906 C 133.449219 57.371094 134.558594 57.074219 135.683594 56.957031 C 137.359375 56.84375 139.023438 56.472656 140.71875 56.695313 C 141.078125 56.785156 141.347656 57.144531 141.769531 57.035156 C 142.253906 57.308594 142.738281 57.578125 143.21875 57.847656 C 144.320313 58.511719 145.039063 59.597656 146.042969 60.367188 C 146.128906 60.480469 146.214844 60.59375 146.300781 60.703125 C 146.792969 61.136719 147.285156 61.570313 147.78125 62.007813 C 147.921875 62.484375 148.183594 62.890625 148.542969 63.234375 C 148.683594 64.179688 149.449219 64.816406 149.734375 65.691406 C 150.136719 66.582031 150.203125 67.503906 149.941406 68.445313 C 149.769531 68.835938 149.601563 69.230469 149.429688 69.621094 C 148.90625 70.277344 148.464844 70.964844 148.542969 71.859375 C 148.429688 72.519531 148.953125 72.597656 149.371094 72.726563 C 150.679688 73.144531 152.003906 73.386719 153.371094 72.996094 L 153.496094 73.011719 L 153.609375 72.953125 C 154.792969 72.9375 156.222656 72.527344 155.996094 71.320313 C 155.730469 69.9375 155.617188 68.546875 155.433594 67.164063 C 155.421875 66.921875 155.398438 66.683594 155.332031 66.445313 C 155.335938 66.015625 155.382813 65.570313 155.058594 65.207031 C 155.066406 65.019531 154.996094 64.878906 154.808594 64.816406 C 153.761719 63.230469 152.710938 61.644531 151.664063 60.058594 L 151.117188 59.179688 C 151.007813 58.625 150.667969 58.210938 150.277344 57.832031 C 150.082031 57.316406 149.847656 56.820313 149.433594 56.433594 C 148.980469 55.253906 148.425781 54.125 147.730469 53.0625 C 147.554688 52.769531 147.375 52.476563 147.195313 52.179688 C 146.773438 51.191406 145.972656 50.960938 144.996094 51.078125 C 144.476563 50.785156 143.894531 50.855469 143.351563 50.886719 C 140.976563 51.011719 138.722656 50.519531 136.515625 49.714844 C 136.40625 49.488281 136.214844 49.390625 135.972656 49.382813 C 135.195313 48.9375 134.417969 48.492188 133.640625 48.046875 C 133.648438 47.707031 133.472656 47.558594 133.144531 47.554688 C 132.984375 47.425781 132.828125 47.292969 132.667969 47.164063 C 132.609375 47.082031 132.550781 46.996094 132.496094 46.914063 C 132.421875 46.824219 132.34375 46.734375 132.269531 46.640625 C 131.8125 45.890625 131.355469 45.140625 130.894531 44.390625 C 130.441406 43.171875 129.988281 41.953125 129.535156 40.734375 C 129.457031 39.738281 129.085938 38.828125 128.726563 37.914063 C 128.683594 37.121094 128.398438 36.398438 128.0625 35.695313 C 127.988281 35.507813 127.910156 35.320313 127.835938 35.128906 C 127.675781 34.488281 127.417969 33.894531 127.039063 33.355469 C 127.039063 33.355469 127.039063 33.355469 127.039063 33.351563 C 126.859375 32.902344 126.863281 32.363281 126.433594 32.027344 C 126.117188 30.886719 125.496094 29.945313 124.574219 29.203125 C 124.441406 28.953125 124.34375 28.71875 124.75 28.640625 C 125.210938 28.761719 125.671875 28.878906 126.136719 28.996094 C 127.433594 29.582031 128.667969 30.273438 129.785156 31.164063 C 129.972656 31.261719 130.15625 31.359375 130.34375 31.457031 C 130.433594 31.480469 130.523438 31.503906 130.613281 31.53125 C 131.078125 31.894531 131.542969 32.257813 132.007813 32.621094 C 133.09375 33.636719 134.308594 34.46875 135.621094 35.164063 C 135.796875 35.261719 135.972656 35.359375 136.148438 35.457031 C 136.90625 36.183594 137.800781 36.699219 138.730469 37.152344 C 139.316406 37.628906 139.933594 38.050781 140.675781 38.246094 C 141.101563 38.609375 141.597656 38.84375 142.128906 39.007813 C 143.007813 39.429688 143.917969 39.742188 144.878906 39.925781 C 145.882813 40.351563 146.917969 40.648438 148.011719 40.742188 C 148.832031 41.019531 149.664063 41.246094 150.535156 41.269531 L 150.65625 41.328125 L 150.785156 41.3125 C 151.136719 41.5625 151.535156 41.570313 151.941406 41.546875 C 152.179688 41.566406 152.414063 41.59375 152.652344 41.613281 C 153.328125 41.863281 154.03125 41.878906 154.738281 41.859375 C 155.679688 41.972656 156.621094 42.085938 157.566406 42.199219 C 158.355469 42.359375 159.070313 42.363281 159.347656 41.394531 C 159.335938 41.363281 159.328125 41.339844 159.316406 41.3125 C 159.46875 41.222656 159.625 41.136719 159.777344 41.050781 C 159.964844 41.03125 160.152344 41.011719 160.339844 40.992188 C 160.539063 40.820313 160.738281 40.652344 160.9375 40.480469 C 161.828125 40.363281 162.605469 39.929688 163.414063 39.585938 C 163.398438 39.632813 163.398438 39.679688 163.414063 39.726563 C 163.792969 39.613281 164.171875 39.5 164.546875 39.386719 C 164.628906 39.105469 164.886719 39.117188 165.101563 39.054688 C 165.875 38.972656 166.636719 38.839844 167.339844 38.472656 C 167.8125 38.410156 168.28125 38.351563 168.753906 38.285156 C 169.125 38.183594 169.5 38.078125 169.875 37.976563 C 170.152344 37.863281 170.433594 37.753906 170.714844 37.644531 C 171.261719 37.539063 171.808594 37.4375 172.355469 37.332031 C 172.546875 37.234375 172.734375 37.140625 172.925781 37.046875 C 173.070313 37.074219 173.214844 37.105469 173.359375 37.117188 C 173.644531 37.101563 173.894531 37.023438 174.066406 36.777344 C 174.589844 36.132813 175.519531 36.285156 176.09375 35.738281 C 176.261719 35.707031 176.429688 35.679688 176.597656 35.652344 C 176.984375 35.75 177.316406 35.632813 177.613281 35.386719 C 177.917969 35.089844 178.289063 34.929688 178.691406 34.820313 C 179.046875 34.695313 179.421875 34.617188 179.71875 34.367188 C 179.785156 34.261719 179.816406 34.152344 179.824219 34.027344 C 179.867188 34.015625 179.910156 34.007813 179.953125 33.988281 C 180.3125 33.859375 180.65625 33.714844 180.925781 33.449219 C 180.992188 33.453125 181.0625 33.453125 181.140625 33.449219 C 181.746094 33.378906 182.035156 32.882813 182.402344 32.496094 C 182.871094 31.851563 183.542969 31.292969 183.339844 30.355469 C 183.351563 29.894531 183.367188 29.433594 183.378906 28.972656 C 183.5 28.535156 183.3125 28.246094 182.929688 28.054688 "/>
</g>
</g>
</svg>
